<svg xmlns="http://www.w3.org/2000/svg" xmlns:xlink="http://www.w3.org/1999/xlink" width="300" height="300" viewBox="-146558.18807783394 5540394.024400431 595428.0239012778 685546.0802152772" preserveAspectRatio="xMinYMin meet"><g transform="matrix(1,0,0,-1,0,11766334.129016139)"><path fill-rule="evenodd" fill="#66cc99" stroke="#555555" stroke-width="4570.307201435181" opacity="0.6" d="M -15018.786394951741,5692434.527788728 L -14712.123027406486,5693283.981216 L -14322.995090943958,5694098.961580896 L -13855.214028087508,5694871.486288159 L -13313.361675471231,5695593.988588546 L -12702.745385522625,5696259.391693851 L -12029.346041840483,5696861.178092857 L -11299.759477448519,5697393.453389258 L -10521.1318697231,5697851.004036277 L -9701.089744790834,5698229.348402479 L 117.31271738340956,5702182.465945669 L 906.4933673516925,5702458.906900647 L 1717.66587047082,5702661.945985694 L 2544.0187208457405,5702789.87825899 L 11656.597584403693,5703775.689215483 L 11950.005932621752,5703802.645894249 L 28011.125473227446,5705017.11580682 L 28790.685439018995,5705042.633249129 L 29569.576798623646,5705001.485587468 L 30342.109011064036,5704893.973444578 L 45227.89448364817,5702169.359209537 L 46051.16732869527,5701978.896506647 L 46853.29194104141,5701713.095218363 L 47627.38995018076,5701374.234641089 L 68379.39930629778,5691120.134886386 L 73508.41632208276,5691098.002292472 L 79669.70417634418,5712718.917848362 L 79963.93631643476,5713584.36594112 L 80343.27749364727,5714416.034880539 L 80803.92119867959,5715205.579262152 L 81341.24508981543,5715945.076381509 L 81949.85737593731,5716627.1057347655 L 82623.65092060015,5717244.823479932 L 83355.8645242575,5717792.031111587 L 90409.11335917703,5722531.806330279 L 90997.3330865659,5722895.514917115 L 105305.7415624498,5731009.850688285 L 103718.00581236472,5748283.9491748465 L 103681.08686595394,5749278.1212765565 L 103718.83926425554,5751445.07781759 L 98406.07134326582,5765540.849917653 L 88435.23166704638,5772912.118392868 L 87710.09790134114,5773508.241538618 L 87050.04296618116,5774175.706343409 L 86462.05172833557,5774907.4495273745 L 85952.34645846549,5775695.727600728 L 85526.32098549626,5776532.198807313 L 85188.48361776775,5777408.011399156 L 84942.40943498549,5778313.897307884 L 84790.70245583115,5779240.270221747 L 82431.46158275004,5800433.149526289 L 78917.7056946993,5810162.270186735 L 75494.77612249393,5816327.200438374 L 58932.54899855856,5814179.049987921 L 58020.575269330184,5814107.005112123 L 57105.97084031313,5814126.633799135 L 56197.92776240783,5814237.73877472 L 55305.572142953264,5814439.203400298 L 54437.87242559025,5814729.0028955005 L 53603.549254692734,5815104.224687824 L 52810.98783025643,5815561.097684867 L 52068.15363410499,5816095.030174944 L 51382.512374390404,5816700.655975177 L 50760.954952970125,5817371.888363258 L 50209.728209760906,5818101.981250843 L 49734.37214010992,5818883.596983782 L 49339.66421616734,5819708.880087758 L 49029.571371847516,5820569.53621818 L 48807.21013394434,5821456.9155208515 L 48674.81530009517,5822362.099565619 L 48633.71747838924,5823275.990979291 L 48684.32971435424,5824189.404876986 L 48826.14333972396,5825093.161173003 L 49057.73308470801,5825978.176843457 L 57041.64783148429,5851242.311356591 L 57363.27544709117,5852105.70274233 L 57770.32699154839,5852932.260694467 L 58258.65280164198,5853713.558916202 L 58823.27466840009,5854441.632508407 L 59458.43658715388,5855109.0591673395 L 60157.66343679128,5855709.034850875 L 60913.82699000117,5856235.443141924 L 61719.218581570756,5856682.917601885 L 62565.62769392317,5857046.896478491 L 63444.42565875976,5857323.669210326 L 64346.653621515456,5857510.414253928 L 65263.1138718788,5857605.227847849 L 66184.46360931292,5857607.143420439 L 67101.3101876904,5857516.141443506 L 85747.68196226256,5854708.762275043 L 86298.39599494117,5856232.984087225 L 79647.71797620007,5870900.2930253185 L 79323.3851445656,5871718.3146713665 L 79079.35280307886,5872563.772781143 L 78917.89028300239,5873428.805181513 L 78840.49907361538,5874305.367672034 L 78847.89885940652,5875185.308830434 L 78940.02082750804,5876060.445815181 L 79116.00830760779,5876922.640460216 L 79374.2247383879,5877763.874954251 L 79712.26888640829,5878576.326400842 L 80126.99717590971,5879352.439565893 L 80614.55292188459,5880084.997136085 L 81170.40219456867,5880767.1868348755 L 81789.3759818384,5881392.664771938 L 82465.71825743304,5881955.614436936 L 83193.13950800063,5882450.800789031 L 83964.87522120318,5882873.618939122 L 84773.7487909826,5883220.136972117 L 85612.23825501186,5883487.132511013 L 86472.5462437197,5883672.122682763 L 87346.67249041118,5883773.387207271 L 88226.48822819082,5883789.984394799 L 89103.81178184814,5883721.759903033 L 89970.48465175375,5883569.348172355 L 100649.29731381424,5881155.402572755 L 112685.97807029702,5898673.246656289 L 113274.9795466626,5899440.011539561 L 113941.80433939055,5900140.1513978625 L 114678.96615708311,5900765.805919075 L 115478.18905044312,5901309.951021147 L 116330.50032448869,5901766.477709867 L 128062.25673562488,5907271.563496325 L 128911.92064314536,5907619.253172144 L 129792.2199080319,5907879.810403198 L 130694.24456337432,5908050.597954174 L 131608.86474828137,5908129.887195403 L 132526.82311595324,5908116.875599217 L 143860.68657504377,5907384.852500165 L 145468.35458591525,5912779.157080308 L 130050.9574297018,5919149.525986055 L 114011.208150308,5910917.068943001 L 113195.27885193312,5910547.695532223 L 112347.06925640847,5910260.088476336 L 111474.75056867235,5910057.018430384 L 110586.72624797189,5909940.441664341 L 109691.55105335842,5909911.481217432 L 108797.84863163986,5909970.416079363 L 107914.22844170507,5910116.678502685 L 107049.20281552682,5910348.859472171 L 106211.10495483468,5910664.722278528 L 105408.00865343415,5911061.224065678 L 104647.6505185254,5911534.545144033 L 103937.35544030028,5912080.125787371 L 103283.96602780436,5912692.710158845 L 87553.8428398589,5928962.852873258 L 86961.8220322116,5929638.850556854 L 86439.15840247575,5930369.798048174 L 85990.92018445133,5931148.607398924 L 85621.4539137643,5931967.726547608 L 85334.34227980513,5932819.212551345 L 85132.36938463262,5933694.808608057 L 85017.49374572482,5934586.024122117 L 84990.82930436786,5935484.217037075 L 85052.63462384269,5936380.677637101 L 85202.31038215451,5937266.713004504 L 85438.40518361753,5938133.731314367 L 85758.62963294047,5938973.325148891 L 92937.37737882668,5955327.561395863 L 96268.04346081485,5976599.006239913 L 95769.5497853407,5987910.949463326 L 84333.21721735082,6012866.313890542 L 84005.48273649382,6013683.402748569 L 83758.01120073698,6014528.270744676 L 83593.10598268549,6015393.0541631775 L 83512.30195850423,6016269.703923076 L 83516.35122186378,6017150.060495905 L 83605.21608373351,6018025.929851562 L 86163.37145218838,6035024.6942004245 L 74329.52041186551,6042845.600781285 L 73636.29453278545,6043352.164698973 L 72993.74656991875,6043921.639226538 L 72407.56485899028,6044548.982931298 L 71882.93873769979,6045228.64207748 L 71424.51260565697,6045954.599792221 L 71036.3448085337,6046720.429331613 L 67308.25983827972,6055022.71490489 L 66969.2854212939,6055894.662376953 L 66721.36698240609,6056796.733603114 L 66567.11023540431,6057719.447483692 L 66508.1364753174,6058653.105957134 L 66545.06553800942,6059587.895930195 L 66677.50928547718,6060513.992417159 L 66904.07568532304,6061421.6618040325 L 67953.13540427212,6064862.932911183 L 68284.34858020012,6065773.135894486 L 68710.17278848492,6066643.104504471 L 69225.81041647145,6067463.037108608 L 69825.45195506809,6068223.695812568 L 70502.34145245708,6068916.510540361 L 86596.7503700425,6083728.467970015 L 85980.09054789456,6095883.687288808 L 85979.16875494175,6096789.839534181 L 86068.12318623373,6097691.615476781 L 86246.07667350222,6098580.122819386 L 86511.27444017236,6099446.60010475 L 86861.10140499004,6100282.503111195 L 87292.10796900367,6101079.589106101 L 87800.0440316181,6101829.99812643 L 88379.90090029307,6102526.330484825 L 89025.9606806195,6103161.719736971 L 89731.85265974485,6103729.900390727 L 111133.84751092311,6119270.81867192 L 111811.22234695002,6119718.074169361 L 112525.66237640941,6120103.36573789 L 113271.51457592302,6120423.644748995 L 130756.00524367018,6127027.066065172 L 140334.24692444413,6142125.06022852 L 140879.42866322017,6142893.603621152 L 141500.95811609543,6143601.829018792 L 142192.2080913331,6144242.184815508 L 142945.80798710097,6144807.843079615 L 151798.40032196147,6150763.871327604 L 168926.27358672602,6169007.916153432 L 169645.9359677088,6169695.201369291 L 170436.1575217256,6170300.035897164 L 171287.54064390008,6170815.22682276 L 175653.46810799828,6173141.854137653 L 175351.65277451006,6191279.6708289515 L 175379.64107601246,6192161.560189718 L 175492.67016910602,6193036.623966691 L 175689.68331367627,6193896.680947665 L 175968.838579586,6194733.690223104 L 176327.5260673873,6195539.826362816 L 176762.3923089902,6196307.552578058 L 177269.37162015925,6197029.691185045 L 177843.7241117148,6197699.490711098 L 178480.0800040623,6198310.689016012 L 179172.48983074015,6198857.571838539 L 179914.48006162004,6199335.026220584 L 180699.11362572244,6199738.58830966 L 181519.05476780352,6200064.4850926725 L 182366.63763235076,6200309.66967086 L 183233.93793377708,6200471.849746089 L 184112.8470427486,6200549.509052179 L 184995.14779599325,6200541.921530891 L 185872.59132082268,6200449.158120054 L 186736.97415611453,6200272.086090337 L 187580.21494872915,6200012.360936902 L 188394.43000830556,6199672.41090173 L 189172.0070140533,6199255.4142713025 L 189905.67618443564,6198765.269661941 L 190588.5782443589,6198206.559570563 L 191214.32855442417,6197584.507531656 L 191777.07680267893,6196904.929281017 L 192271.5617007945,6196174.178382836 L 192693.16017329926,6195399.086828479 L 201810.78416403168,6176514.973369816 L 202190.74290985736,6176796.7699812185 L 202958.84526951023,6177257.152818301 L 203768.37441550527,6177640.031589414 L 204611.53413963295,6177941.718962689 L 205480.20435283188,6178159.309523802 L 206366.01928608556,6178290.707756702 L 207260.448057351,6178334.648224577 L 208154.87682861643,6178290.707756702 L 209040.69176187008,6178159.309523802 L 209909.36197506904,6177941.718962689 L 210752.5216991967,6177640.031589414 L 211562.05084519176,6177257.152818301 L 212330.15320484462,6176796.7699812185 L 213049.4315325444,6176263.316816558 L 213712.95878479778,6175661.930769911 L 214314.3448314447,6174998.403517658 L 214847.79799610487,6174279.125189958 L 215308.18083318745,6173511.022830306 L 215691.0596043005,6172701.4936843105 L 215992.74697757536,6171858.333960183 L 216210.3375386883,6170989.663746984 L 216341.7357715887,6170103.84881373 L 216385.67623946414,6169209.4200424645 L 216341.7357715887,6168314.991271199 L 216210.3375386883,6167429.176337945 L 215992.74697757536,6166560.506124746 L 215691.0596043005,6165717.346400619 L 215308.18083318745,6164907.817254623 L 214847.79799610487,6164139.714894971 L 214314.3448314447,6163420.436567271 L 213712.95878479778,6162756.909315018 L 213049.4315325444,6162155.523268371 L 212330.15320484462,6161622.0701037105 L 211562.05084519176,6161161.687266628 L 210752.5216991967,6160778.808495515 L 209909.36197506904,6160477.12112224 L 209040.69176187008,6160259.530561127 L 208154.87682861643,6160128.132328227 L 207260.448057351,6160084.191860352 L 206366.01928608556,6160128.132328227 L 205480.2043528319,6160259.530561127 L 204611.53413963295,6160477.12112224 L 203768.3744155053,6160778.808495515 L 202958.84526951023,6161161.687266628 L 202190.74290985736,6161622.0701037105 L 201471.46458215758,6162155.523268371 L 200807.9373299042,6162756.909315018 L 200206.5512832573,6163420.436567271 L 199697.65566010206,6164106.602883353 L 199071.66704576215,6163663.593472317 L 198304.3428508018,6163225.277318796 L 197498.21978118946,6162863.237172891 L 194871.31298629777,6161833.229374363 L 196344.4986913601,6150911.476923075 L 205169.23204245223,6152200.602752537 L 206038.55692772425,6152285.348816221 L 206912.00189185995,6152286.592234562 L 207781.56453865697,6152204.321615514 L 208639.27804123078,6152039.290712452 L 209477.2841331106,6151793.011518374 L 210287.90510471823,6151467.740413212 L 211063.7141456064,6151066.45749115 L 211797.60338799006,6150592.839257361 L 212482.849028164,6150051.224944325 L 213113.1729291719,6149446.5767563 L 213682.80014033135,6148784.43440622 L 214186.51180662744,6148070.864361515 L 214619.69298322566,6147312.40426388 L 214978.3749170335,6146516.003032199 L 215259.27140793204,6145688.957197397 L 220877.5183366157,6126116.817929759 L 220923.48781798058,6125950.780798981 L 224798.52541073872,6111422.576560741 L 224901.94329208933,6110993.411320616 L 227374.8177863711,6099519.547696753 L 237512.65366365144,6074254.026399488 L 244970.9963744426,6064638.189284346 L 257199.32265385054,6058742.1781931855 L 258016.35924031446,6058295.491642197 L 258783.61989541614,6057767.866068908 L 262683.93857128714,6054781.5399405295 L 262736.912220397,6054740.671105864 L 275378.7044323273,6044913.468690536 L 276104.6911677045,6044285.138991302 L 276760.6396456939,6043584.006660636 L 277339.2880567428,6042817.8337250175 L 277834.2303572362,6041995.102256028 L 278239.98718889145,6041124.920467867 L 285044.0120857335,6024270.401519576 L 291199.67228027596,6017536.089973535 L 302042.7235171391,6006323.553075323 L 302622.68331408675,6005662.918898149 L 303136.3831494323,6004949.544269157 L 303579.0555972956,6004190.049709579 L 303946.59240624413,6003391.483759771 L 304235.58262619725,6002561.257564751 L 304443.34426397725,6001707.076094575 L 304567.94917372806,6000836.866637841 L 304608.240951202,5999958.705231952 L 304563.8456658478,5999080.741712913 L 304435.1753310978,5998211.124080226 L 304223.4240806496,5997357.922878833 L 303930.5570862283,5996529.05629988 L 303559.2923196776,5995732.216695416 L 296860.0922831675,5982995.199389109 L 292775.8640094503,5970279.629504587 L 305345.9317180813,5960705.781739951 L 306047.7669240194,5960113.117891831 L 306686.46070707415,5959452.895698438 L 307255.5407971987,5958731.80559021 L 307749.24036196194,5957957.154808944 L 308162.5564453464,5957136.793359108 L 308491.3006657247,5956279.034458991 L 308732.1416592615,5955392.570297847 L 308882.6388386364,5954486.383952682 L 311969.8693657121,5927575.508362386 L 315254.6887747268,5906414.870698252 L 327204.9772786037,5893134.246278424 L 327821.1915152434,5892370.5527072055 L 328351.836276323,5891545.1049537435 L 328790.77508378844,5890667.448654582 L 335705.74969410873,5874755.467250908 L 346230.19282895233,5877466.537333894 L 347023.11979883816,5877633.638488908 L 347827.7446699313,5877729.736316135 L 348637.7222631019,5877754.07299917 L 373966.9935848659,5877389.844064383 L 374923.1144901157,5877325.775052933 L 375867.2447199719,5877161.792941849 L 376788.97271481244,5876899.70607226 L 377678.13395954185,5876542.40465251 L 378524.9230745416,5876093.828885886 L 379320.00194619235,5875558.925519343 L 398265.95194573695,5861312.6051692255 L 398936.8179904587,5860756.061981376 L 399551.5215412409,5860138.048134803 L 400104.4536884608,5859464.202744173 L 400590.56916039786,5858740.674363358 L 401005.43235920207,5857974.064882475 L 401345.257833846,5857171.369288439 L 401606.94482076255,5856339.911838668 L 401788.1055369998,5855487.279230334 L 401887.08696772944,5854621.251374966 L 401902.98594930675,5853749.7304100515 L 401835.65741025674,5852880.668595375 L 401685.71569498995,5852021.995752014 L 401454.52895816986,5851181.546906087 L 401144.2066808807,5850366.990797449 L 400757.58042250574,5849585.759905691 L 400298.1779839474,5848844.9826319115 L 392058.39350854314,5836875.370233383 L 397470.4822691739,5840257.107055733 L 398241.01630617486,5840688.206082512 L 399049.6066051942,5841042.819677003 L 399888.6831700229,5841317.627958213 L 400750.39059301803,5841510.0581799075 L 401626.6615971752,5841618.308816579 L 402509.2925617143,5841641.36642927 L 403390.0203241122,5841579.015153359 L 404260.5995395626,5841431.8387194695 L 405112.87987362704,5841201.214988615 L 405938.88230540254,5840889.303052698 L 406730.87382685684,5840499.023021169 L 407481.43983899924,5840034.02868305 L 408183.5535671165,5839498.673300284 L 408830.6418452103,5838897.96885264 L 409416.6466537644,5838237.539115713 L 409936.08183472755,5837523.567011325 L 421984.12332450517,5819157.031785198 L 422433.82914213254,5818392.958279701 L 422807.264028674,5817588.850059544 L 423100.90286269836,5816752.297682604 L 423311.9737753093,5815891.197970573 L 423438.4843158163,5815013.679465155 L 423479.24025991507,5814128.025696896 L 423433.8568828325,5813242.596990961 L 423302.7625910216,5812365.751547987 L 423087.1948781237,5811505.766544997 L 422789.18864337285,5810670.760001155 L 422411.5569827132,5809868.614145915 L 421957.864633956,5809106.901012978 L 421432.3943266461,5808392.810962392 L 420840.1063542872,5807733.084805559 L 420186.59175055067,5807133.950173849 L 419478.0195114736,5806601.062731494 L 418721.0783618523,5806139.452787689 L 408982.20210697525,5800831.438285714 L 405367.05625553697,5781741.513434382 L 405174.76888156665,5780930.6437717145 L 404909.3083199207,5780140.697739233 L 404572.8885563166,5779378.263619666 L 404168.3153881472,5778649.700241764 L 403698.96302365814,5777961.083946596 L 403168.7459404842,5777318.157909844 L 402582.08623824746,5776726.284242754 L 391267.53186346905,5766308.7746706465 L 385735.9945238758,5747800.725500208 L 385429.08276774467,5746935.194661328 L 385036.73118688154,5746104.89429634 L 384562.9134334372,5745318.233508181 L 384012.4282313795,5744583.179427572 L 383390.85077605303,5743907.176523632 L 382704.4762698033,5743297.071207908 L 381960.2561655259,5742759.0424953895 L 381165.7277638516,5742298.539424783 L 367989.26722896995,5735523.261899783 L 366699.6228117747,5734238.880128644 L 361770.26393352484,5726489.2928294325 L 358482.45599543024,5712789.52538612 L 358755.5523581479,5703616.253662342 L 373792.8439956508,5702064.696966607 L 373985.2011781741,5702042.784809278 L 389978.54470282915,5700048.843761465 L 390849.2957482445,5699897.147612488 L 391701.2862070262,5699661.92141741 L 392526.5228894662,5699345.372017376 L 393317.2636039838,5698950.4692102065 L 394066.089792688,5698480.917888393 L 394765.97613067896,5697941.123280602 L 395410.35643612203,5697336.149622776 L 395993.1852727422,5696671.672646568 L 396508.99466679577,5695953.926330861 L 396952.9454064145,5695189.644415924 L 397320.8724420415,5694385.997228932 L 397609.3239620231,5693550.524413499 L 397815.5937767569,5692691.064194388 L 397937.74670757615,5691815.679840975 L 397974.6367421759,5690932.584019417 L 397925.91778625204,5690050.061743189 L 396178.147206697,5673239.5987069 L 396034.0912221938,5672316.512605819 L 395796.40675024927,5671412.993835413 L 395467.585217037,5670538.513146103 L 395051.0733541319,5669702.236909003 L 390265.4203082071,5661212.590248786 L 389795.04095260025,5660465.169333808 L 389254.6155821131,5659766.7173445765 L 388649.2057553135,5659123.775897833 L 387984.481667317,5658542.366705297 L 387266.6690434257,5658027.935175053 L 386502.4908297393,5657585.299410507 L 385699.10422685614,5657218.605084624 L 384864.03365639906,5656931.286612047 L 375905.79284209776,5654326.474728548 L 362473.3858370388,5639446.730205021 L 361894.1587145376,5638860.616492692 L 361264.419475796,5638329.145106437 L 360589.30340389593,5637856.649992513 L 359874.315812671,5637446.984168194 L 359125.2871529733,5637103.488301885 L 358348.3254675731,5636828.963471241 L 338968.0179405998,5630951.105738117 L 316696.2092873994,5623864.411172623 L 315791.3673807556,5623626.821747559 L 314866.9549904445,5623483.122952992 L 293768.360965927,5621303.694271639 L 292809.80338992237,5621255.41981723 L 291851.4774035853,5621308.091948146 L 290903.984384613,5621461.127984632 L 289977.8058721718,5621712.834982065 L 289083.187616002,5622060.428458977 L 288230.0262339184,5622500.063200081 L 277213.3131540336,5628931.677099857 L 263473.6947731551,5628102.688970068 L 242057.64821418078,5623377.130656007 L 235856.31542927327,5621280.219046387 L 234909.3723386948,5621015.926956253 L 233939.49210665136,5620855.042335506 L 213029.7019019655,5618535.293249479 L 208859.68140012282,5611946.682212685 L 208331.04736266285,5611197.569743435 L 207729.9097900554,5610505.285801726 L 207062.3372737582,5609876.819117938 L 206335.06907788376,5609318.514175799 L 205555.44710512127,5608836.00716369 L 204731.34177891398,5608434.169076317 L 203871.07259012508,5608117.056541137 L 202983.32411028736,5607887.870865989 L 202077.05831929814,5607748.925721308 L 201161.42413262735,5607701.623783216 L 195341.55006556874,5607693.732737001 L 194489.1265305812,5607732.473347075 L 193644.04855831226,5607850.667842105 L 192813.7056696782,5608047.28270717 L 192005.35853924954,5608320.598704867 L 191226.07550654517,5608668.225908648 L 177640.62032761812,5615507.187517794 L 176930.9121214538,5615905.066366046 L 176259.46566808107,5616364.580213537 L 175631.61895463042,5616882.075933512 L 169966.69717334473,5621992.083831543 L 154529.40960314716,5611157.7437359905 L 153775.56670601686,5610681.874849552 L 152978.8873087963,5610281.834540737 L 152146.97495257246,5609961.44081078 L 151287.76944324904,5609723.751510681 L 150409.4710737107,5609571.03515694 L 149520.46235988892,5609504.74928075 L 148629.22803768356,5609525.52651725 L 147744.2740842929,5609633.168567638 L 146874.04653681573,5609826.648091736 L 146026.85088292428,5610104.118512971 L 145210.77279294663,5610462.931642179 L 144433.60094989516,5610899.662952027 L 143702.75271395384,5611410.144260848 L 143025.20333088623,5611989.503513935 L 142407.4193600017,5612632.211282639 L 141855.29695704608,5613332.133537455 L 141374.10560104775,5614082.590191464 L 140968.4378021919,5614876.418855349 L 140642.16527071362,5615706.043195539 L 140398.4019651354,5616563.545243051 L 140239.4743725183,5617440.74096291 L 140166.89930437342,5618329.258362918 L 140181.36942015006,5619220.617396295 L 140282.7466164654,5620106.310895594 L 142073.4803150049,5631006.4352603145 L 133688.61758871196,5639202.608149703 L 128631.78947421117,5640599.650793596 L 126390.01513982829,5624637.946815074 L 126223.84589958827,5623765.529658818 L 125973.65732104142,5622913.397282895 L 125641.81916776735,5622089.62100807 L 125231.47458073,5621302.003568687 L 124746.51030673091,5620558.005205868 L 124191.51988349506,5619864.673004792 L 123571.76013009727,5619228.574145336 L 122893.10135484749,5618655.733698345 L 122161.97175226158,5618151.577556703 L 121385.29651578455,5617720.881041771 L 120570.43224298475,5617367.723671966 L 119725.09725452734,5617095.450521946 L 118857.29848693928,5616906.640538352 L 117975.255651631,5616803.082112265 L 117087.32337853359,5616785.756139727 L 116201.91208180004,5616854.826730784 L 115327.40829712329,5617009.639655045 L 114472.09524522907,5617248.7285385 L 109169.56167111335,5619013.334751339 L 108995.85123613922,5619073.091825128 L 94679.53980100984,5624159.682358215 L 93989.57832532159,5624436.97877038 L 80062.04396469422,5630705.1373543935 L 72590.89080921403,5626507.649301986 L 71623.31143999836,5626036.81049215 L 55421.04182422681,5619303.035984936 L 44524.989144226216,5597648.25305991 L 44063.88524005254,5596837.838434538 L 43522.48892086036,5596078.708207879 L 42906.45270279489,5595378.788174238 L 42222.20838922296,5594745.385936473 L 41476.89991868369,5594185.114610057 L 40678.30877770252,5593703.823778016 L 18995.454092922813,5582102.992638343 L 18192.599738402518,5581722.499134855 L 17356.5488549618,5581421.8841966605 L 16495.226731250812,5581203.997483036 L 15616.798212958083,5581070.904436567 L 14729.590304699914,5581023.866703922 L 13842.013234734879,5581063.330176152 L 12962.480730765355,5581188.920761904 L 12099.33026256632,5581399.447933585 L 11260.744007496065,5581692.916012898 L 10454.671288091053,5582066.543088736 L 9688.75321699253,5582516.787388125 L 8970.250263528316,5583039.380850227 L 8305.973428577512,5583629.369585133 L 7702.219680141348,5584281.160833937 L -1284.3014127868612,5594983.826740171 L -14234.028169271314,5595323.932916558 L -14906.000357094028,5595366.430497974 L -15573.00971318741,5595458.360822228 L -35997.20095100529,5599045.593982311 L -52148.458964101075,5591540.284048385 L -72864.6979005499,5581040.571008411 L -79744.7859752303,5570063.276315616 L -80267.78429135903,5569314.839491901 L -80862.95876312659,5568622.414574728 L -81524.35059101804,5567992.934020807 L -82245.33801706109,5567432.700097117 L -83018.70262089589,5566947.321783529 L -83836.70158954084,5566541.658616527 L -84691.14523730059,5566219.7720362395 L -85573.47899969788,5565984.884723896 L -86474.86908051849,5565839.348336816 L -87386.29089448319,5565784.61996396 L -88298.61942007189,5565821.247537771 L -89202.72055790074,5565948.864348351 L -90089.54257998535,5566166.192714912 L -90950.20675431383,5566471.056777723 L -91776.09623740925,5566860.404282503 L -116342.7908551716,5579982.310923645 L -117122.34331417395,5580450.036284079 L -117851.48774321395,5580993.007232408 L -118522.98724031955,5581605.834675101 L -119130.17704081412,5582282.436179167 L -119667.0306664176,5583016.0963415075 L -120128.21973922968,5583799.533440609 L -120509.16686692912,5584624.971709062 L -120806.09107429364,5585484.2185095865 L -121016.04533012299,5586368.745648565 L -121136.94579710384,5587269.774020045 L -121167.59251430517,5588178.360740097 L -121107.68130702671,5589085.487906691 L -120957.80680579273,5589982.152104152 L -120719.456544527,5590859.453763836 L -120394.99619648591,5591708.685494095 L -119987.64609448567,5592521.418502857 L -119501.44926846544,5593289.586255042 L -114829.26593507633,5599916.215108848 L -114241.36577729203,5600664.005517172 L -113578.81557821673,5601346.533409648 L -112848.8146684575,5601956.38237624 L -112059.29530416676,5602486.9257427165 L -111218.83647442676,5602932.398576698 L -110336.57068117546,5603287.96032993 L -109422.08470461139,5603549.747436127 L -108485.31543236984,5603714.9152928265 L -96032.39583383483,5605246.542962658 L -79760.36468829433,5619953.1326902965 L -60509.7969200575,5639836.937506594 L -59884.38602663318,5640424.879148219 L -49921.648136885175,5648944.518905396 L -33553.98295000988,5668800.072644829 L -32902.06361308515,5669510.791091874 L -32178.775775295504,5670148.736415967 L -31392.19852691884,5670706.782798595 L -19332.181763487337,5678338.202605966 L -15018.786394951741,5692434.527788728 z M 334227.881659974,5815181.262126243 L 342212.3713702538,5818963.769942565 L 349101.142569747,5822806.838363052 L 342638.1571417181,5830052.028674905 L 340104.2464793054,5828495.566504757 L 339148.02496215503,5827983.84103466 L 331328.43663705024,5824379.490364253 L 334227.881659974,5815181.262126243 z M 310702.7136460866,5853094.683656108 L 308983.73196984647,5851875.7202975 L 312252.0438319791,5838039.690584777 L 315329.47211600165,5838194.027520239 L 324005.4205096881,5850420.418342352 L 323201.20989087323,5854184.774504054 L 310702.7136460866,5853094.683656108 z M 228963.94993558567,5955425.412069652 L 252807.25385357995,5966537.384661266 L 268344.13570672815,5977823.352082668 L 266878.27474238345,5984128.715610919 L 255629.3270935279,5994710.4825738445 L 254996.49425684335,5995368.478100479 L 254432.5746662936,5996086.4127825005 L 253943.21251308342,5996857.100913499 L 253533.30575360128,5997672.828785271 L 253206.95708646852,5998525.43189324 L 252967.4328892105,5999406.376653815 L 248279.16581779058,6020830.633159325 L 243142.92910576833,6022072.458985767 L 235644.4178212881,6017991.733697983 L 227572.6144854367,6002378.253088602 L 236286.25271606466,5994375.477685609 L 236928.8320159385,5993722.92197528 L 237502.765848381,5993009.243428813 L 238002.2732499893,5992241.630591865 L 238422.3229195142,5991427.81526463 L 238758.68389577238,5990575.994623086 L 239007.96817411255,5989694.748652724 L 239167.66483218007,5988792.953726417 L 239236.16532124745,5987879.6931969365 L 239212.77966836313,5986964.165904636 L 239097.74342612192,5986055.593521894 L 238892.21530005534,5985163.127667586 L 238598.2654775402,5984295.757727162 L 238218.85477578247,5983462.220306825 L 237757.80481890932,5982670.911233848 L 237219.75954456112,5981929.800989375 L 236610.138427709,5981246.354425556 L 235935.08189285285,5980627.455575616 L 235201.38946443648,5980079.338314262 L 234416.45127846123,5979607.523566816 L 233588.17364514977,5979216.763699551 L 232724.89941243123,5978910.994651357 L 211938.69329784752,5972703.44507485 L 212994.6749911725,5961842.876284192 L 220694.70567489907,5955578.109449732 L 228963.94993558567,5955425.412069652 z M 147940.65179069908,5786669.972103295 L 138464.67600754928,5776946.255728684 L 142651.07828458698,5769064.550222763 L 151120.48915045708,5768481.63245958 L 159650.99950537074,5776758.635224555 L 154031.0012869076,5781192.591757934 L 153564.16611161825,5781586.97198967 L 147940.65179069908,5786669.972103295 z" /></g></svg>