<?xml version="1.0" encoding="UTF-8"?>
<svg id="_ÎÓÈ_1" data-name="—ÎÓÈ_1" xmlns="http://www.w3.org/2000/svg" xmlns:xlink="http://www.w3.org/1999/xlink" version="1.1" viewBox="0 0 383.7 383.7">
  <defs>
    <style>
      .cls-1 {
        fill: url(#linear-gradient);
      }

      .cls-1, .cls-2 {
        stroke-width: 0px;
      }

      .cls-2 {
        fill: #fff;
      }
    </style>
    <linearGradient id="linear-gradient" x1="56.2" y1="56.2" x2="327.5" y2="327.5" gradientUnits="userSpaceOnUse">
      <stop offset="0" stop-color="#390963"/>
      <stop offset=".2" stop-color="#721a6e"/>
      <stop offset=".5" stop-color="#a92e5e"/>
      <stop offset=".6" stop-color="#da4e3c"/>
      <stop offset=".8" stop-color="#f06f20"/>
      <stop offset="1" stop-color="#fb9706"/>
    </linearGradient>
  </defs>
  <rect class="cls-1" x="0" y="0" width="383.7" height="383.7" rx="191.9" ry="191.9"/>
  <g>
    <g>
      <polygon class="cls-2" points="134.7 191.3 134.7 223.3 266 224.1 266 192.1 134.7 191.3"/>
      <polygon class="cls-2" points="266 226.6 134.7 225.8 134.7 233.4 266 234.1 266 226.6"/>
      <polygon class="cls-2" points="266 189.6 266 182.1 134.7 181.3 134.7 188.8 266 189.6"/>
    </g>
    <path class="cls-2" d="M266,179.8v-3.1c0-1.2-1.1-2.3-3-3-10.3-3.7-43.4-15.4-44.7-38.7-.8-14.8,2.3-20.7,7.3-40.7,5.3-21.3-17.3-39.3-24.8-39.3-7.4,0-30.2,17.5-25,38.9,4.9,20.1,8,26.1,7.1,40.8-1.4,23.3-34.5,34.5-44.9,38-1.9.6-3.2,1.7-3.2,2.9v3.1l131.2,1Z"/>
    <path class="cls-2" d="M134.7,236c-.1,5.5-.2,21.9-2.7,36.5-3,17.9-7.6,31.9-14.3,44.2l13.7-2.7c4.9-6.7,10.6-24.6,10.6-24.6,0,0-2,15.7-6,23.7l16.9-3.3c11.7-19.6,17.5-56.7,17.5-56.7,0,0-3.8,38.1-12.2,55.6l55.4-11c7-12.2,19.3-51.3,19.3-51.3,0,0-3.5,33.9-10.8,49.7l5.8-1.1c7.1-7,19-46.2,19-46.2,0,0-3.2,32.4-10.8,44.6l12-2.4c3.7-4.3,10.4-15.3,12.7-22.3,2.1-6.6,5.4-26.4,5.1-31.8l-131.2-.8Z"/>
  </g>
</svg>