<?xml version="1.0" encoding="UTF-8"?>
<svg id="_ÎÓÈ_1" data-name="—ÎÓÈ_1" xmlns="http://www.w3.org/2000/svg" version="1.1" viewBox="0 0 383.7 383.7">
  <defs>
    <style>
      .cls-1 {
        fill: #fff;
        stroke-width: 0px;
      }
    </style>
  </defs>
  <path class="cls-1" d="M192.7-.5h0C86.7-.5.8,85.4.8,191.3h0c0,106,85.9,191.9,191.9,191.9h0c106,0,191.9-85.9,191.9-191.9h0C384.6,85.4,298.7-.5,192.7-.5ZM135.8,181.3l131,.8v7.6l-131-.8v-7.6ZM135.8,191.3l131,.8v32l-131-.8v-32ZM135.8,225.8l131,.8v7.6l-131-.8v-7.6ZM261.7,268.1c-2.2,7-9,18-12.7,22.3l-12,2.4c7.6-12.2,10.8-44.6,10.8-44.6,0,0-11.9,39.2-19,46.2l-5.8,1.1c7.3-15.7,10.8-49.7,10.8-49.7,0,0-12.3,39.2-19.3,51.3l-55.4,11c8.4-17.5,12.2-55.6,12.2-55.6,0,0-5.8,37.1-17.5,56.7l-16.9,3.3c4-8,6-23.7,6-23.7,0,0-5.7,17.9-10.6,24.6l-13.7,2.7c6.7-12.3,11.2-26.3,14.2-44.2,2.5-14.6,2.8-31,2.9-36.5l131,.8c.3,5.4-3,25.3-5.1,31.8ZM266.8,179.3l-131-1v-3.1c0-1.2,1.2-2.3,3.1-2.9,10.3-3.5,43.5-14.7,44.9-38,.9-14.7-2.2-20.7-7.1-40.8-5.2-21.4,17.5-39,25-38.9,7.4,0,30.1,18,24.8,39.3-5,20.1-8.1,26-7.3,40.7,1.3,23.3,34.4,35,44.7,38.7,1.9.7,3,1.8,3,3v3.1Z"/>
</svg>