<?xml version="1.0" encoding="UTF-8"?>
<svg id="_ÎÓÈ_1" data-name="—ÎÓÈ_1" xmlns="http://www.w3.org/2000/svg" version="1.1" viewBox="0 0 1227.8 856.8">
  <defs>
    <style>
      .cls-1 {
        fill: #000;
        stroke-width: 0px;
      }
    </style>
  </defs>
  <g>
    <g>
      <path class="cls-1" d="M116.6,669.3c6.7,0,12.7.6,18.2,1.8,5.5,1.2,10.2,3.1,14.1,5.8,3.9,2.7,7,6.2,9.1,10.7,2.2,4.4,3.2,9.9,3.2,16.5s-1.6,12.9-4.8,17.6c-3.2,4.7-7.9,8.6-14.2,11.6,8.6,2.5,15.1,6.8,19.3,13,4.2,6.2,6.4,13.7,6.4,22.5s-1.4,13.2-4.1,18.3c-2.7,5.2-6.4,9.4-11.1,12.6-4.6,3.3-9.9,5.7-15.9,7.3-5.9,1.6-12.1,2.4-18.3,2.4H50.7v-140h65.9ZM112.7,726c5.5,0,10-1.3,13.5-3.9,3.5-2.6,5.3-6.9,5.3-12.7s-.6-5.9-1.8-8c-1.2-2.1-2.7-3.7-4.7-4.9-2-1.2-4.2-2-6.8-2.5-2.5-.5-5.2-.7-7.9-.7h-28.8v32.7h31.2ZM114.4,785.4c3,0,5.9-.3,8.6-.9,2.7-.6,5.2-1.6,7.3-2.9,2.1-1.4,3.8-3.2,5-5.6,1.2-2.4,1.9-5.4,1.9-9,0-7.2-2-12.3-6.1-15.4-4.1-3.1-9.4-4.6-16.1-4.6h-33.5v38.4h32.9Z"/>
      <path class="cls-1" d="M257.7,669.3c6.3,0,11.9,1,17,3,5,2,9.3,4.8,12.9,8.3,3.6,3.5,6.3,7.6,8.2,12.3,1.9,4.6,2.8,9.6,2.8,15,0,8.2-1.7,15.4-5.2,21.4-3.5,6-9.1,10.6-17,13.7v.4c3.8,1,6.9,2.6,9.4,4.8,2.5,2.2,4.5,4.7,6.1,7.6,1.6,2.9,2.7,6.2,3.4,9.7.7,3.5,1.2,7.1,1.5,10.6.1,2.2.3,4.8.4,7.8.1,3,.4,6.1.7,9.2.3,3.1.8,6.1,1.6,8.9.7,2.8,1.8,5.2,3.2,7.2h-30.8c-1.7-4.4-2.7-9.7-3.1-15.9-.4-6.1-1-12-1.8-17.6-1-7.3-3.3-12.7-6.7-16.1-3.4-3.4-9-5.1-16.7-5.1h-30.8v54.7h-30.8v-140h75.5ZM246.7,732.6c7.1,0,12.4-1.6,15.9-4.7,3.5-3.1,5.3-8.2,5.3-15.3s-1.8-11.7-5.3-14.8c-3.5-3.1-8.8-4.6-15.9-4.6h-33.7v39.4h33.7Z"/>
      <path class="cls-1" d="M390.9,669.3l52.4,140h-32l-10.6-31.2h-52.4l-11,31.2h-31l52.9-140h31.6ZM392.7,755.2l-17.6-51.4h-.4l-18.2,51.4h36.3Z"/>
      <path class="cls-1" d="M480.2,669.3l58.4,93.9h.4v-93.9h28.8v140h-30.8l-58.2-93.7h-.4v93.7h-28.8v-140h30.6Z"/>
      <path class="cls-1" d="M649.2,669.3c9,0,17.4,1.4,25.2,4.3,7.8,2.9,14.5,7.2,20.2,12.9,5.7,5.8,10.1,12.9,13.3,21.6,3.2,8.6,4.8,18.8,4.8,30.4s-1.3,19.6-3.9,28.2c-2.6,8.6-6.6,16.1-11.9,22.4-5.3,6.3-11.9,11.2-19.8,14.8-7.9,3.6-17.2,5.4-27.9,5.4h-60.4v-140h60.4ZM647,783.4c4.4,0,8.8-.7,12.9-2.2,4.2-1.4,7.9-3.8,11.2-7.2,3.3-3.3,5.9-7.7,7.8-13,2-5.4,2.9-11.9,2.9-19.6s-.7-13.4-2.1-19.1c-1.4-5.7-3.6-10.6-6.8-14.6-3.1-4.1-7.3-7.2-12.5-9.3-5.2-2.2-11.5-3.2-19.1-3.2h-22v88.2h27.5Z"/>
      <path class="cls-1" d="M895.4,669.3h9.6l-56.3,81.4v58.6h-8.6v-58.6l-55.9-81.4h9.8l50.6,74.1,50.8-74.1Z"/>
      <path class="cls-1" d="M928.7,669.3h12.4l54.7,130.4h.4l54.1-130.4h12.4v140h-8.6v-129.4h-.4l-53.3,129.4h-8.6l-53.9-129.4h-.4v129.4h-8.6v-140Z"/>
      <path class="cls-1" d="M1089,669.3h8.6v132.6h79.4v7.5h-88v-140Z"/>
    </g>
    <g>
      <path class="cls-1" d="M116.6,669.3c6.7,0,12.7.6,18.2,1.8,5.5,1.2,10.2,3.1,14.1,5.8,3.9,2.7,7,6.2,9.1,10.7,2.2,4.4,3.2,9.9,3.2,16.5s-1.6,12.9-4.8,17.6c-3.2,4.7-7.9,8.6-14.2,11.6,8.6,2.5,15.1,6.8,19.3,13,4.2,6.2,6.4,13.7,6.4,22.5s-1.4,13.2-4.1,18.3c-2.7,5.2-6.4,9.4-11.1,12.6-4.6,3.3-9.9,5.7-15.9,7.3-5.9,1.6-12.1,2.4-18.3,2.4H50.7v-140h65.9ZM112.7,726c5.5,0,10-1.3,13.5-3.9,3.5-2.6,5.3-6.9,5.3-12.7s-.6-5.9-1.8-8c-1.2-2.1-2.7-3.7-4.7-4.9-2-1.2-4.2-2-6.8-2.5-2.5-.5-5.2-.7-7.9-.7h-28.8v32.7h31.2ZM114.4,785.4c3,0,5.9-.3,8.6-.9,2.7-.6,5.2-1.6,7.3-2.9,2.1-1.4,3.8-3.2,5-5.6,1.2-2.4,1.9-5.4,1.9-9,0-7.2-2-12.3-6.1-15.4-4.1-3.1-9.4-4.6-16.1-4.6h-33.5v38.4h32.9Z"/>
      <path class="cls-1" d="M257.7,669.3c6.3,0,11.9,1,17,3,5,2,9.3,4.8,12.9,8.3,3.6,3.5,6.3,7.6,8.2,12.3,1.9,4.6,2.8,9.6,2.8,15,0,8.2-1.7,15.4-5.2,21.4-3.5,6-9.1,10.6-17,13.7v.4c3.8,1,6.9,2.6,9.4,4.8,2.5,2.2,4.5,4.7,6.1,7.6,1.6,2.9,2.7,6.2,3.4,9.7.7,3.5,1.2,7.1,1.5,10.6.1,2.2.3,4.8.4,7.8.1,3,.4,6.1.7,9.2.3,3.1.8,6.1,1.6,8.9.7,2.8,1.8,5.2,3.2,7.2h-30.8c-1.7-4.4-2.7-9.7-3.1-15.9-.4-6.1-1-12-1.8-17.6-1-7.3-3.3-12.7-6.7-16.1-3.4-3.4-9-5.1-16.7-5.1h-30.8v54.7h-30.8v-140h75.5ZM246.7,732.6c7.1,0,12.4-1.6,15.9-4.7,3.5-3.1,5.3-8.2,5.3-15.3s-1.8-11.7-5.3-14.8c-3.5-3.1-8.8-4.6-15.9-4.6h-33.7v39.4h33.7Z"/>
      <path class="cls-1" d="M390.9,669.3l52.4,140h-32l-10.6-31.2h-52.4l-11,31.2h-31l52.9-140h31.6ZM392.7,755.2l-17.6-51.4h-.4l-18.2,51.4h36.3Z"/>
      <path class="cls-1" d="M480.2,669.3l58.4,93.9h.4v-93.9h28.8v140h-30.8l-58.2-93.7h-.4v93.7h-28.8v-140h30.6Z"/>
      <path class="cls-1" d="M649.2,669.3c9,0,17.4,1.4,25.2,4.3,7.8,2.9,14.5,7.2,20.2,12.9,5.7,5.8,10.1,12.9,13.3,21.6,3.2,8.6,4.8,18.8,4.8,30.4s-1.3,19.6-3.9,28.2c-2.6,8.6-6.6,16.1-11.9,22.4-5.3,6.3-11.9,11.2-19.8,14.8-7.9,3.6-17.2,5.4-27.9,5.4h-60.4v-140h60.4ZM647,783.4c4.4,0,8.8-.7,12.9-2.2,4.2-1.4,7.9-3.8,11.2-7.2,3.3-3.3,5.9-7.7,7.8-13,2-5.4,2.9-11.9,2.9-19.6s-.7-13.4-2.1-19.1c-1.4-5.7-3.6-10.6-6.8-14.6-3.1-4.1-7.3-7.2-12.5-9.3-5.2-2.2-11.5-3.2-19.1-3.2h-22v88.2h27.5Z"/>
      <path class="cls-1" d="M895.4,669.3h9.6l-56.3,81.4v58.6h-8.6v-58.6l-55.9-81.4h9.8l50.6,74.1,50.8-74.1Z"/>
      <path class="cls-1" d="M928.7,669.3h12.4l54.7,130.4h.4l54.1-130.4h12.4v140h-8.6v-129.4h-.4l-53.3,129.4h-8.6l-53.9-129.4h-.4v129.4h-8.6v-140Z"/>
      <path class="cls-1" d="M1089,669.3h8.6v132.6h79.4v7.5h-88v-140Z"/>
    </g>
  </g>
  <path class="cls-1" d="M613.9,47.4h0c-144.6,0-261.9,117.2-261.9,261.9h0c0,144.6,117.2,261.9,261.9,261.9h0c144.6,0,261.9-117.2,261.9-261.9h0c0-144.6-117.2-261.9-261.9-261.9ZM536.2,295.6l178.8,1.1v10.3l-178.8-1.1v-10.3ZM536.2,309.3l178.8,1.1v43.7l-178.8-1.1v-43.7ZM536.2,356.3l178.8,1.1v10.3l-178.8-1.1v-10.3ZM708,414c-3.1,9.5-12.2,24.6-17.3,30.4l-16.4,3.3c10.4-16.7,14.8-60.9,14.8-60.9,0,0-16.3,53.5-26,63.1l-7.8,1.6c9.9-21.5,14.7-67.8,14.7-67.8,0,0-16.8,53.5-26.4,70.1l-75.6,14.9c11.4-23.9,16.6-75.9,16.6-75.9,0,0-7.9,50.6-23.8,77.3l-23.1,4.6c5.5-10.9,8.2-32.4,8.2-32.4,0,0-7.8,24.5-14.4,33.6l-18.7,3.7c9.1-16.8,15.3-35.9,19.4-60.4,3.4-19.9,3.8-42.3,3.9-49.8l178.8,1.1c.4,7.4-4.1,34.5-7,43.4ZM715,292.8l-178.8-1.4v-4.3c0-1.6,1.6-3.1,4.2-4,14.1-4.8,59.4-20.1,61.2-51.8,1.2-20.1-3-28.2-9.7-55.7-7.1-29.2,23.9-53.2,34.1-53.1,10.2,0,41.1,24.6,33.8,53.7-6.9,27.4-11,35.4-9.9,55.6,1.7,31.8,46.9,47.8,61,52.8,2.6.9,4.1,2.5,4.1,4.1v4.3Z"/>
  <circle class="cls-1" cx="763.3" cy="800.7" r="8.6"/>
</svg>