<?xml version="1.0" standalone="no"?>
<!DOCTYPE svg PUBLIC "-//W3C//DTD SVG 20010904//EN"
 "http://www.w3.org/TR/2001/REC-SVG-20010904/DTD/svg10.dtd">
<svg version="1.0" xmlns="http://www.w3.org/2000/svg"
 width="725.000000pt" height="455.000000pt" viewBox="0 0 725.000000 455.000000"
 preserveAspectRatio="xMidYMid meet">
<metadata>
Created by potrace 1.16, written by Peter Selinger 2001-2019
</metadata>
<g transform="translate(0.000000,455.000000) scale(0.100000,-0.100000)"
fill="hsl(215, 6%, 14%)" stroke="none">
<path d="M3473 4431 c-64 -24 -97 -46 -150 -104 -59 -64 -87 -142 -88 -247 l0
-85 -269 -160 c-147 -88 -307 -184 -355 -214 -47 -29 -120 -71 -161 -94 -69
-37 -146 -85 -196 -122 -19 -14 -24 -11 -92 51 -40 36 -72 70 -72 76 0 6 13
38 29 72 76 162 69 319 -20 458 -86 133 -265 203 -418 164 -124 -32 -222 -108
-276 -216 -105 -210 -9 -489 203 -588 49 -23 70 -27 152 -27 71 0 104 4 129
18 48 24 53 22 91 -27 18 -25 44 -55 58 -67 27 -23 26 -24 -23 -54 -15 -9 -16
-42 -15 -338 l1 -327 -201 0 -200 0 0 30 c0 36 -33 138 -58 178 -34 56 -98
124 -143 153 -131 84 -338 88 -464 8 l-48 -30 -83 82 c-79 79 -82 84 -70 108
43 87 47 232 8 306 -28 55 -97 120 -157 147 -38 17 -69 23 -125 23 -66 0 -84
-4 -143 -33 -80 -40 -132 -88 -161 -151 -32 -70 -29 -206 6 -282 33 -73 89
-134 152 -167 70 -37 189 -38 255 -3 l44 23 81 -79 c44 -43 82 -79 84 -80 2 0
-4 -10 -14 -21 -39 -46 -67 -135 -72 -229 -5 -105 5 -157 50 -256 l32 -68 -75
-75 -75 -75 -48 22 c-41 18 -63 21 -135 17 -92 -5 -139 -22 -201 -74 -77 -65
-120 -197 -100 -306 32 -166 149 -270 305 -272 100 -1 157 18 219 75 102 93
138 244 91 377 l-19 52 79 80 c44 44 83 80 87 80 5 0 25 -11 46 -25 121 -79
340 -59 487 47 64 46 125 130 145 202 l13 46 203 0 204 0 0 -450 c0 -442 0
-449 20 -460 20 -11 19 -13 -22 -63 -55 -67 -57 -68 -87 -49 -20 13 -49 17
-141 17 -144 -1 -203 -21 -289 -100 -124 -115 -171 -286 -120 -438 52 -155
146 -241 312 -284 117 -30 266 11 362 100 60 56 110 144 129 228 25 109 -1
240 -65 331 -21 30 -22 31 -3 41 10 6 40 31 66 55 l48 45 58 -35 c31 -20 120
-70 197 -113 77 -43 158 -90 180 -105 55 -36 286 -169 482 -276 90 -49 163
-92 163 -95 0 -4 -15 -32 -34 -62 -55 -93 -77 -257 -48 -362 35 -123 144 -229
280 -272 77 -24 89 -25 150 -15 97 16 199 70 260 137 70 77 96 145 96 260 0
107 -16 181 -55 252 -16 29 -29 55 -29 57 0 5 183 115 270 163 221 121 688
406 752 460 22 18 44 30 48 26 3 -4 23 -32 44 -60 21 -29 41 -53 44 -53 4 0
13 -4 21 -9 11 -7 10 -13 -7 -31 -58 -62 -94 -216 -74 -316 18 -90 74 -195
133 -248 104 -94 231 -130 364 -103 123 26 210 81 265 169 111 178 87 392 -61
547 -75 79 -139 104 -270 109 -93 4 -113 1 -155 -18 l-49 -21 -52 56 c-58 61
-62 71 -35 80 17 5 20 21 25 133 4 70 7 272 7 450 l0 322 205 -2 c161 -2 205
-6 205 -16 0 -36 59 -133 114 -188 132 -131 316 -176 477 -115 28 11 61 29 73
40 l22 20 91 -87 92 -87 -22 -40 c-31 -58 -31 -210 -1 -276 31 -66 84 -121
151 -155 52 -26 68 -29 148 -28 110 0 164 23 230 96 112 125 119 309 17 442
-79 104 -216 142 -350 97 -73 -25 -73 -25 -148 59 -70 79 -68 73 -40 127 72
143 75 307 7 446 l-28 58 84 85 84 84 42 -22 c97 -51 255 -14 337 80 60 67 84
139 84 247 1 79 -2 96 -27 142 -34 66 -81 113 -143 144 -41 20 -64 24 -134 23
-112 -1 -181 -27 -242 -92 -88 -94 -115 -249 -63 -360 l24 -52 -78 -83 -78
-83 -26 22 c-70 60 -242 89 -354 61 -189 -49 -302 -165 -350 -361 l-17 -69
-80 7 c-45 3 -133 6 -196 6 l-115 0 4 329 3 329 -40 21 -40 20 53 53 c28 29
57 62 62 72 10 19 12 19 69 -4 43 -18 78 -24 134 -25 140 0 245 54 319 167
154 235 84 522 -157 640 -62 31 -74 33 -167 33 -91 0 -106 -3 -167 -32 -121
-57 -196 -151 -232 -289 -29 -112 -16 -208 43 -316 l36 -68 -71 -71 -71 -71
-89 59 c-49 33 -134 86 -189 118 -55 32 -125 75 -156 96 -67 45 -111 71 -327
195 -89 52 -180 105 -202 119 l-40 25 6 54 c16 139 -63 290 -188 356 -56 30
-73 34 -153 37 -70 3 -101 -1 -142 -16z m225 -155 c31 -19 50 -42 68 -79 22
-48 22 -52 6 -55 -10 -2 -24 -18 -31 -37 -6 -19 -34 -54 -61 -78 -52 -47 -68
-52 -205 -64 -74 -6 -74 -6 -85 21 -5 15 -10 58 -10 95 0 109 48 187 135 219
51 19 134 9 183 -22z m-1852 -210 c66 -31 157 -123 112 -113 -8 1 -15 -18 -19
-53 -11 -98 -67 -188 -141 -226 -36 -19 -139 -28 -198 -17 -41 7 -47 12 -68
54 -36 73 -33 147 9 233 35 72 71 105 146 132 56 19 102 17 159 -10z m3691
-22 c35 -19 63 -40 64 -47 3 -48 -6 -120 -22 -171 -32 -106 -110 -158 -262
-175 -65 -8 -87 -7 -103 4 -64 41 -80 196 -31 291 71 138 212 177 354 98z
m-1567 -302 c156 -99 661 -401 753 -452 65 -35 77 -45 65 -55 -14 -14 -332
-197 -581 -334 l-149 -81 -48 43 c-75 68 -250 155 -312 156 l-28 1 0 344 0
344 34 12 c40 13 116 76 116 96 0 16 34 -1 150 -74z m-589 34 c25 -28 55 -50
82 -59 l42 -14 3 -341 2 -342 -24 0 c-76 0 -230 -77 -321 -161 l-43 -40 -128
72 c-71 39 -144 82 -164 94 -19 12 -96 55 -170 95 -156 84 -270 152 -270 161
0 7 86 59 605 368 149 88 286 171 305 185 19 14 37 25 39 26 2 0 21 -20 42
-44z m-2849 -334 c47 -31 86 -92 58 -92 -5 0 -10 -10 -10 -23 0 -52 -90 -147
-139 -147 -10 0 -24 -7 -31 -15 -9 -11 -9 -15 -1 -15 7 0 10 -4 7 -9 -7 -11
11 -25 49 -39 29 -10 29 -10 5 -11 -46 -1 -127 45 -160 91 -29 39 -31 48 -28
104 4 69 35 120 92 155 40 25 121 25 158 1z m6298 -6 c47 -32 67 -69 53 -98
-6 -13 -14 -32 -18 -43 -5 -15 -8 -16 -14 -6 -6 9 -11 10 -15 2 -4 -6 -2 -11
3 -11 37 0 -12 -50 -82 -85 -48 -23 -51 -24 -78 -8 -32 19 -49 11 -33 -15 18
-28 66 -47 121 -46 28 0 49 -4 47 -8 -3 -4 -29 -8 -58 -8 -73 0 -131 38 -173
115 -35 64 -5 163 64 210 52 34 133 35 183 1z m-6256 -289 c-6 -16 -63 -51
-71 -43 -3 3 3 9 13 12 10 4 27 15 37 26 21 21 28 23 21 5z m4395 -989 c0
-280 -3 -498 -8 -498 -5 0 -14 7 -21 15 -13 16 -145 94 -337 199 l-121 67 30
46 c36 53 94 186 104 238 3 20 12 38 18 40 6 1 31 8 56 15 56 15 114 71 131
128 18 61 -2 142 -47 192 -35 39 -74 54 -165 64 -40 5 -50 1 -83 -25 -75 -62
-99 -152 -71 -263 30 -118 -2 -263 -81 -374 -4 -6 -204 100 -204 108 0 4 7 27
15 51 54 150 47 358 -16 480 -11 23 -19 42 -17 43 13 11 302 178 338 196 25
12 119 64 210 115 91 51 185 103 210 117 l45 23 6 -240 c3 -132 7 -464 8 -737z
m-2634 912 c6 -5 79 -45 164 -90 85 -44 169 -93 187 -106 l33 -25 -52 -77
c-71 -107 -106 -145 -132 -147 -12 0 -34 -8 -48 -18 -21 -13 -27 -26 -27 -52
0 -19 5 -35 10 -35 6 0 10 -7 10 -15 0 -10 10 -15 30 -15 l30 0 0 -81 c0 -188
92 -399 173 -399 68 0 68 7 10 180 -35 105 -35 106 -31 245 6 158 18 199 88
290 22 29 40 57 40 63 0 21 16 14 132 -60 l76 -49 -23 -52 c-61 -139 -72 -324
-26 -452 11 -32 21 -63 21 -67 0 -11 -81 -56 -161 -90 -39 -16 -107 -53 -152
-82 -45 -30 -154 -93 -242 -141 -88 -48 -176 -98 -195 -111 -19 -13 -37 -24
-40 -24 -5 0 -7 1102 -2 1352 l2 117 58 -26 c31 -14 62 -29 67 -33z m3827
-214 c65 -31 159 -143 158 -188 0 -7 -9 5 -19 27 -39 83 -46 84 -47 3 -3 -258
-187 -394 -420 -312 -16 6 -17 5 -6 -7 6 -7 12 -22 12 -34 0 -12 6 -27 13 -35
6 -7 -2 -3 -19 11 -95 74 -137 217 -98 335 19 56 31 74 47 71 7 -1 13 10 15
25 5 45 100 110 187 128 42 8 135 -4 177 -24z m-4950 13 c56 -12 87 -28 129
-66 23 -21 25 -29 24 -101 -3 -104 -26 -179 -75 -241 -94 -119 -228 -133 -367
-41 l-33 22 -1 -24 c0 -17 -7 -9 -27 32 -33 68 -34 132 -3 213 27 69 51 77 45
15 l-4 -43 10 38 c5 20 17 48 26 62 8 13 14 34 12 46 -4 27 32 55 103 80 64
22 90 23 161 8z m2549 -30 c33 -18 83 -54 110 -79 l49 -46 -3 -140 c-4 -123
-8 -149 -35 -228 -16 -48 -43 -104 -59 -125 -42 -53 -142 -115 -233 -145 -110
-36 -129 -35 -294 13 l-68 20 27 -25 c17 -15 25 -31 21 -41 -4 -8 -1 -23 6
-32 8 -10 4 -8 -10 4 -41 34 -123 153 -143 206 -63 165 -13 377 121 509 142
140 363 187 511 109z m925 -322 c22 -19 25 -28 20 -54 -14 -61 -69 -83 -121
-49 -30 20 -34 64 -9 101 22 33 73 34 110 2z m-754 -469 c-7 -7 -12 -8 -12 -2
0 14 12 26 19 19 2 -3 -1 -11 -7 -17z m-3402 -58 c14 -10 39 -32 55 -50 24
-26 26 -31 11 -28 -20 3 -25 -11 -29 -78 -1 -17 -9 -39 -17 -48 -19 -24 -111
-76 -133 -76 -28 0 -49 -24 -34 -40 10 -10 8 -10 -8 -2 -49 25 -95 103 -95
161 0 49 38 137 67 156 58 38 134 40 183 5z m6268 6 c38 -20 72 -58 81 -92 6
-24 1 -37 -36 -86 -58 -76 -84 -95 -143 -103 -28 -4 -57 -13 -65 -21 -12 -12
-18 -9 -42 22 -39 51 -43 140 -10 204 38 75 145 113 215 76z m-3683 -45 c11
-35 123 -129 197 -166 40 -19 102 -41 137 -48 l64 -13 1 -412 c1 -297 -2 -412
-10 -412 -6 0 -85 42 -175 93 -165 94 -270 156 -649 382 -113 67 -231 137
-264 155 l-59 33 24 18 c23 17 88 54 464 259 265 146 259 143 270 111z m1230
-123 c262 -138 467 -256 472 -273 1 -5 -23 -22 -55 -37 -31 -15 -113 -62 -182
-104 -69 -43 -195 -118 -280 -167 -85 -49 -184 -108 -220 -131 -36 -24 -127
-80 -204 -125 -122 -73 -142 -82 -172 -76 l-34 6 0 402 0 403 56 12 c30 6 88
27 127 46 75 36 191 132 202 167 5 14 12 18 23 14 10 -3 130 -65 267 -137z
m1109 -535 c3 -4 16 -8 28 -10 64 -10 162 -97 154 -136 -3 -12 -8 -40 -11 -62
-20 -124 -106 -213 -230 -240 -86 -19 -97 -39 -42 -74 44 -28 27 -26 -33 4
-71 36 -112 76 -144 140 -25 49 -28 63 -24 119 6 75 53 171 100 206 57 42 180
75 202 53z m-3606 -19 c20 -8 49 -27 65 -41 22 -22 27 -35 27 -77 0 -28 -12
-86 -26 -128 -21 -64 -33 -85 -70 -117 -53 -47 -118 -71 -190 -71 -93 0 -109
7 -139 62 -48 87 -32 200 42 296 57 75 202 113 291 76z m1842 -519 c33 -17 66
-54 79 -88 20 -51 11 -99 -32 -187 -39 -78 -46 -86 -95 -111 -57 -28 -212 -65
-236 -56 -7 3 -26 31 -41 62 -24 48 -27 64 -22 118 7 79 38 171 68 204 66 70
199 98 279 58z"/>
<path d="M5372 4042 c-9 -7 -8 -13 7 -26 23 -21 41 -14 41 15 0 20 -24 25 -48
11z m33 -30 c-3 -3 -11 0 -18 7 -9 10 -8 11 6 5 10 -3 15 -9 12 -12z"/>
<path d="M3969 3453 c-136 -69 -150 -244 -29 -347 86 -72 206 -43 263 63 63
115 7 271 -108 300 -60 15 -64 15 -126 -16z m131 -125 c11 -18 20 -42 20 -54
0 -22 -33 -57 -64 -68 -44 -15 -97 62 -73 109 28 55 87 61 117 13z"/>
<path d="M3075 3468 c-147 -51 -190 -236 -81 -344 70 -71 174 -79 252 -19 79
60 98 202 38 287 -50 72 -133 102 -209 76z m95 -148 c28 -28 26 -75 -5 -105
-30 -31 -62 -32 -92 -3 -48 45 -18 128 47 128 17 0 39 -9 50 -20z"/>
<path d="M6590 3287 c0 -8 12 -24 26 -38 l26 -24 -22 38 c-23 40 -30 45 -30
24z"/>
<path d="M5760 2686 c0 -2 7 -7 16 -10 8 -3 12 -2 9 4 -6 10 -25 14 -25 6z"/>
<path d="M300 1868 c0 -9 9 -26 20 -39 l21 -24 -17 35 c-21 43 -24 47 -24 28z"/>
<path d="M6590 1843 c0 -6 8 -17 18 -24 16 -13 16 -13 2 6 -8 11 -16 22 -17
24 -2 2 -3 0 -3 -6z"/>
<path d="M3065 1678 c-44 -15 -82 -55 -102 -106 -14 -38 -15 -53 -5 -98 21
-102 91 -160 183 -152 110 11 174 83 167 190 -9 129 -124 207 -243 166z m115
-118 c42 -42 13 -110 -45 -108 -20 1 -41 8 -48 17 -9 12 -9 13 1 7 6 -4 12 -2
12 3 0 6 -7 11 -15 11 -25 0 -18 46 11 69 33 26 58 27 84 1z"/>
<path d="M4005 1687 c-64 -30 -115 -105 -115 -172 0 -72 58 -153 127 -176 55
-18 118 -3 163 37 91 82 81 223 -19 290 -46 30 -115 39 -156 21z m85 -122 c40
-21 47 -51 19 -81 -26 -28 -55 -31 -81 -7 -24 21 -23 44 3 77 24 31 22 30 59
11z"/>
<path d="M5205 1169 c-4 -6 -5 -12 -2 -15 2 -3 7 2 10 11 7 17 1 20 -8 4z"/>
<path d="M1530 1083 c0 -5 6 -17 13 -27 14 -20 84 -39 93 -25 3 5 -9 9 -26 9
-21 0 -39 9 -55 26 -14 15 -25 23 -25 17z"/>
<path d="M3385 531 c11 -11 34 -23 50 -26 27 -6 25 -4 -14 19 -51 31 -63 33
-36 7z"/>
<path d="M2595 4230 c-78 -17 -123 -62 -146 -145 -22 -78 24 -176 101 -215
102 -52 218 0 256 113 25 75 7 142 -51 196 -25 23 -48 41 -52 41 -5 0 -24 4
-43 8 -19 5 -48 5 -65 2z m65 -125 c37 -19 40 -59 9 -99 -26 -33 -53 -33 -84
-1 -30 29 -32 68 -5 95 24 24 41 25 80 5z"/>
<path d="M4489 4207 c-18 -12 -47 -42 -63 -65 -77 -109 -4 -275 128 -289 159
-18 261 162 170 300 -48 73 -166 100 -235 54z m123 -104 c25 -30 29 -53 13
-83 -17 -33 -59 -49 -84 -33 -10 6 -17 27 -19 56 -3 38 1 48 20 61 29 21 51
20 70 -1z"/>
<path d="M6020 3467 c-77 -39 -51 -147 36 -147 28 0 38 6 54 33 42 67 -22 148
-90 114z"/>
<path d="M1100 3450 c-27 -27 -27 -83 2 -110 67 -62 160 41 98 108 -26 28 -73
29 -100 2z"/>
<path d="M5611 3274 c-27 -22 -31 -32 -31 -75 0 -40 5 -55 25 -74 31 -32 69
-32 100 -1 28 29 40 66 31 102 -9 33 -50 74 -75 74 -11 0 -33 -12 -50 -26z"/>
<path d="M1485 3257 c-52 -52 -43 -113 22 -146 71 -36 141 90 81 146 -42 38
-65 38 -103 0z"/>
<path d="M5426 2189 c-33 -26 -34 -68 -3 -97 31 -29 61 -28 86 4 33 42 27 80
-16 103 -30 15 -36 14 -67 -10z"/>
<path d="M1676 2184 c-25 -25 -24 -81 2 -101 39 -31 105 1 105 50 0 56 -70 89
-107 51z"/>
<path d="M1364 1996 c-54 -24 -102 -81 -120 -143 -48 -166 72 -315 229 -281
92 19 167 116 167 214 0 144 -155 262 -276 210z m116 -136 c11 -11 20 -24 20
-28 0 -12 -50 -57 -79 -72 -22 -11 -27 -10 -43 10 -23 29 -23 51 3 84 25 32
70 35 99 6z"/>
<path d="M5655 1991 c-45 -21 -89 -64 -103 -101 -24 -63 -24 -126 -2 -179 28
-63 95 -127 144 -137 135 -25 251 75 248 213 -3 125 -94 223 -207 223 -22 0
-58 -9 -80 -19z m137 -128 c26 -23 23 -34 -19 -75 -51 -47 -68 -52 -93 -26
-28 30 -25 67 8 101 22 23 33 27 56 23 16 -4 38 -14 48 -23z"/>
<path d="M6097 1472 c-47 -29 -60 -106 -27 -160 37 -61 112 -65 156 -7 44 59
28 137 -36 170 -37 19 -58 19 -93 -3z"/>
<path d="M981 1466 c-33 -18 -50 -53 -51 -104 0 -58 41 -102 95 -102 71 0 114
41 115 109 0 36 -6 49 -34 77 -37 37 -81 44 -125 20z"/>
<path d="M6291 1102 c-87 -44 -94 -184 -11 -227 62 -32 126 -14 159 45 30 53
28 119 -4 154 -44 47 -90 56 -144 28z"/>
<path d="M775 1077 c-31 -31 -35 -41 -35 -86 0 -42 5 -56 31 -86 26 -30 37
-35 73 -35 68 1 106 44 106 124 0 62 -37 105 -97 113 -39 5 -46 2 -78 -30z"/>
<path d="M2536 925 c-143 -51 -215 -216 -152 -350 44 -96 128 -154 221 -155
82 0 125 17 177 70 104 108 103 270 -2 372 -72 70 -161 93 -244 63z m107 -130
c19 -8 38 -22 41 -32 6 -14 5 -16 -5 -5 -26 25 -38 13 -41 -40 -3 -53 -3 -53
-46 -68 -34 -12 -46 -12 -62 -2 -30 18 -33 15 -13 -19 21 -35 70 -68 104 -70
19 -1 20 -2 5 -6 -26 -7 -92 25 -111 53 -37 56 -23 141 30 182 33 26 50 27 98
7z m37 -220 c-7 -8 -17 -15 -23 -15 -6 0 -2 7 9 15 25 19 30 19 14 0z"/>
<path d="M4476 920 c-88 -44 -136 -118 -144 -219 -6 -86 22 -155 85 -210 60
-53 101 -71 166 -71 223 0 333 280 174 448 -63 66 -201 92 -281 52z m132 -129
c31 -27 32 -103 0 -125 -27 -19 -99 -21 -116 -4 -9 9 -12 9 -12 -3 -1 -10 -4
-9 -11 4 -15 26 -3 80 24 104 51 46 80 52 115 24z m76 -167 c-23 -46 -81 -79
-121 -69 -21 5 -24 8 -12 16 11 7 11 9 -4 9 -10 0 -26 8 -35 17 -16 15 -15 16
11 9 17 -4 26 -3 23 3 -3 5 8 14 26 20 24 9 34 8 40 -1 5 -9 8 -9 8 -2 0 7 12
15 26 18 19 5 24 10 16 18 -8 8 -6 17 6 34 l17 22 9 -28 c6 -21 4 -38 -10 -66z"/>
<path d="M4564 613 c10 -11 36 -12 36 -2 0 5 -10 9 -22 9 -12 0 -18 -3 -14 -7z"/>
<path d="M4186 298 c-20 -29 -20 -41 2 -60 31 -28 59 -31 81 -9 26 26 26 46 1
71 -27 27 -65 26 -84 -2z"/>
</g>
</svg>
