<svg width="3447" height="1676" viewBox="0 0 3447 1676" fill="none" xmlns="http://www.w3.org/2000/svg">
<g clip-path="url(#clip0_1_2)">
<path d="M107.32 48.9561V249.138H81.5298V48.9561H107.32ZM152.098 71.95C148.697 68.7038 146.997 64.7362 146.997 60.0472C146.997 55.3583 148.697 51.3907 152.098 48.1445C155.499 44.8983 159.656 43.2752 164.568 43.2752C169.291 43.2752 173.306 44.8983 176.613 48.1445C179.919 51.3907 181.572 55.3583 181.572 60.0472C181.572 64.7362 179.919 68.7038 176.613 71.95C173.306 75.1962 169.291 76.8193 164.568 76.8193C159.656 76.8193 155.499 75.1962 152.098 71.95ZM177.038 100.895V249.138H151.248V100.895H177.038ZM342.547 114.556C354.262 125.467 360.119 141.202 360.119 161.762C360.119 220.013 360.119 249.138 360.119 249.138H334.612V165.278C334.612 150.49 330.739 139.173 322.992 131.328C315.246 123.483 304.665 119.561 291.251 119.561C277.647 119.561 266.831 123.619 258.801 131.734C250.771 139.85 246.756 151.662 246.756 167.172C246.756 221.816 246.756 249.138 246.756 249.138H220.966V100.895H246.756V121.996C251.857 114.421 258.801 108.56 267.586 104.412C276.372 100.264 286.055 98.1901 296.635 98.1901C315.529 98.1901 330.833 103.646 342.547 114.556ZM543.199 184.214H419.067C420.012 198.822 425.255 210.229 434.796 218.435C444.338 226.64 455.91 230.743 469.514 230.743C480.661 230.743 489.966 228.264 497.429 223.304C504.892 218.345 510.135 211.717 513.158 203.421C531.674 203.421 540.932 203.421 540.932 203.421C536.775 217.668 528.462 229.255 515.992 238.182C503.522 247.11 488.029 251.573 469.514 251.573C454.776 251.573 441.598 248.417 429.978 242.105C418.359 235.793 409.242 226.821 402.63 215.189C396.017 203.556 392.71 190.076 392.71 174.746C392.71 159.417 395.922 145.981 402.346 134.439C408.77 122.897 417.792 114.015 429.411 107.793C441.031 101.572 454.399 98.4606 469.514 98.4606C484.251 98.4606 497.287 101.526 508.624 107.658C519.96 113.79 528.698 122.221 534.839 132.952C540.979 143.682 544.049 155.81 544.049 169.336C544.049 174.025 543.766 178.984 543.199 184.214ZM510.891 139.985C506.545 133.222 500.641 128.082 493.178 124.565C485.715 121.049 477.449 119.29 468.38 119.29C455.343 119.29 444.243 123.258 435.08 131.193C425.916 139.128 420.673 150.129 419.351 164.196C484.723 164.196 517.409 164.196 517.409 164.196C517.409 154.818 515.236 146.748 510.891 139.985ZM578.058 134.575C584.482 123.123 593.315 114.241 604.557 107.929C615.799 101.617 628.316 98.4606 642.108 98.4606C655.712 98.4606 667.52 101.256 677.534 106.847C687.548 112.437 695.011 119.471 699.923 127.947C699.923 109.913 699.923 100.895 699.923 100.895H725.997V249.138H699.923V221.546C694.822 230.202 687.217 237.371 677.109 243.052C667.001 248.733 655.239 251.573 641.825 251.573C628.032 251.573 615.562 248.327 604.415 241.834C593.268 235.342 584.482 226.235 578.058 214.512C571.634 202.79 568.422 189.444 568.422 174.476C568.422 159.327 571.634 146.027 578.058 134.575ZM692.838 145.531C688.115 137.235 681.738 130.878 673.708 126.459C665.678 122.041 656.845 119.831 647.209 119.831C637.574 119.831 628.788 121.996 620.853 126.324C612.917 130.652 606.588 136.964 601.865 145.26C597.141 153.556 594.779 163.294 594.779 174.476C594.779 185.838 597.141 195.711 601.865 204.097C606.588 212.483 612.917 218.886 620.853 223.304C628.788 227.723 637.574 229.932 647.209 229.932C656.845 229.932 665.678 227.723 673.708 223.304C681.738 218.886 688.115 212.483 692.838 204.097C697.561 195.711 699.923 185.928 699.923 174.746C699.923 163.565 697.561 153.826 692.838 145.531ZM814.845 105.224C823.252 100.535 833.502 98.1901 845.594 98.1901C845.594 115.143 845.594 123.619 845.594 123.619H838.792C809.885 123.619 795.431 138.587 795.431 168.524C795.431 222.267 795.431 249.138 795.431 249.138H769.641V100.895H795.431V124.971C799.966 116.495 806.437 109.913 814.845 105.224ZM979.22 242.105C967.412 235.793 958.154 226.821 951.447 215.189C944.739 203.556 941.386 190.076 941.386 174.746C941.386 159.597 944.834 146.207 951.73 134.575C958.626 122.942 968.026 114.015 979.929 107.793C991.832 101.572 1005.15 98.4606 1019.89 98.4606C1034.63 98.4606 1047.95 101.572 1059.85 107.793C1071.75 114.015 1081.15 122.897 1088.05 134.439C1094.94 145.981 1098.39 159.417 1098.39 174.746C1098.39 190.076 1094.85 203.556 1087.77 215.189C1080.68 226.821 1071.09 235.793 1059 242.105C1046.91 248.417 1033.49 251.573 1018.76 251.573C1004.21 251.573 991.029 248.417 979.22 242.105ZM1044.83 223.71C1052.95 219.562 1059.52 213.34 1064.53 205.044C1069.53 196.748 1072.04 186.649 1072.04 174.746C1072.04 162.844 1069.58 152.744 1064.67 144.448C1059.76 136.153 1053.33 129.976 1045.4 125.918C1037.46 121.86 1028.86 119.831 1019.61 119.831C1010.16 119.831 1001.52 121.86 993.674 125.918C985.833 129.976 979.551 136.153 974.828 144.448C970.104 152.744 967.742 162.844 967.742 174.746C967.742 186.829 970.057 197.019 974.686 205.315C979.315 213.611 985.503 219.787 993.249 223.845C1001 227.903 1009.5 229.932 1018.76 229.932C1028.01 229.932 1036.7 227.858 1044.83 223.71ZM1181.01 106.982C1191.11 101.301 1202.88 98.4606 1216.29 98.4606C1230.08 98.4606 1242.6 101.617 1253.84 107.929C1265.08 114.241 1273.92 123.123 1280.34 134.575C1286.76 146.027 1289.98 159.327 1289.98 174.476C1289.98 189.444 1286.76 202.79 1280.34 214.512C1273.92 226.235 1265.08 235.342 1253.84 241.834C1242.6 248.327 1230.08 251.573 1216.29 251.573C1203.06 251.573 1191.4 248.733 1181.29 243.052C1171.18 237.371 1163.48 230.292 1158.19 221.816C1158.19 286.921 1158.19 319.473 1158.19 319.473H1132.4V100.895H1158.19V128.217C1163.29 119.741 1170.9 112.663 1181.01 106.982ZM1256.53 145.26C1251.81 136.964 1245.43 130.652 1237.4 126.324C1229.37 121.996 1220.54 119.831 1210.91 119.831C1201.46 119.831 1192.72 122.041 1184.69 126.459C1176.66 130.878 1170.24 137.28 1165.42 145.666C1160.6 154.052 1158.19 163.745 1158.19 174.746C1158.19 185.928 1160.6 195.711 1165.42 204.097C1170.24 212.483 1176.66 218.886 1184.69 223.304C1192.72 227.723 1201.46 229.932 1210.91 229.932C1220.54 229.932 1229.37 227.723 1237.4 223.304C1245.43 218.886 1251.81 212.483 1256.53 204.097C1261.26 195.711 1263.62 185.838 1263.62 174.476C1263.62 163.294 1261.26 153.556 1256.53 145.26ZM1464.84 184.214H1340.71C1341.65 198.822 1346.89 210.229 1356.43 218.435C1365.98 226.64 1377.55 230.743 1391.15 230.743C1402.3 230.743 1411.6 228.264 1419.07 223.304C1426.53 218.345 1431.77 211.717 1434.8 203.421C1453.31 203.421 1462.57 203.421 1462.57 203.421C1458.41 217.668 1450.1 229.255 1437.63 238.182C1425.16 247.11 1409.67 251.573 1391.15 251.573C1376.41 251.573 1363.24 248.417 1351.62 242.105C1340 235.793 1330.88 226.821 1324.27 215.189C1317.66 203.556 1314.35 190.076 1314.35 174.746C1314.35 159.417 1317.56 145.981 1323.98 134.439C1330.41 122.897 1339.43 114.015 1351.05 107.793C1362.67 101.572 1376.04 98.4606 1391.15 98.4606C1405.89 98.4606 1418.93 101.526 1430.26 107.658C1441.6 113.79 1450.34 122.221 1456.48 132.952C1462.62 143.682 1465.69 155.81 1465.69 169.336C1465.69 174.025 1465.4 178.984 1464.84 184.214ZM1432.53 139.985C1428.18 133.222 1422.28 128.082 1414.82 124.565C1407.35 121.049 1399.09 119.29 1390.02 119.29C1376.98 119.29 1365.88 123.258 1356.72 131.193C1347.55 139.128 1342.31 150.129 1340.99 164.196C1406.36 164.196 1439.05 164.196 1439.05 164.196C1439.05 154.818 1436.87 146.748 1432.53 139.985ZM1544.9 105.224C1553.31 100.535 1563.56 98.1901 1575.65 98.1901C1575.65 115.143 1575.65 123.619 1575.65 123.619H1568.85C1539.94 123.619 1525.49 138.587 1525.49 168.524C1525.49 222.267 1525.49 249.138 1525.49 249.138H1499.7V100.895H1525.49V124.971C1530.02 116.495 1536.49 109.913 1544.9 105.224ZM1605.41 134.575C1611.83 123.123 1620.66 114.241 1631.91 107.929C1643.15 101.617 1655.66 98.4606 1669.46 98.4606C1683.06 98.4606 1694.87 101.256 1704.88 106.847C1714.9 112.437 1722.36 119.471 1727.27 127.947C1727.27 109.913 1727.27 100.895 1727.27 100.895H1753.35V249.138H1727.27V221.546C1722.17 230.202 1714.57 237.371 1704.46 243.052C1694.35 248.733 1682.59 251.573 1669.17 251.573C1655.38 251.573 1642.91 248.327 1631.76 241.834C1620.62 235.342 1611.83 226.235 1605.41 214.512C1598.98 202.79 1595.77 189.444 1595.77 174.476C1595.77 159.327 1598.98 146.027 1605.41 134.575ZM1720.19 145.531C1715.46 137.235 1709.09 130.878 1701.06 126.459C1693.03 122.041 1684.19 119.831 1674.56 119.831C1664.92 119.831 1656.14 121.996 1648.2 126.324C1640.27 130.652 1633.94 136.964 1629.21 145.26C1624.49 153.556 1622.13 163.294 1622.13 174.476C1622.13 185.838 1624.49 195.711 1629.21 204.097C1633.94 212.483 1640.27 218.886 1648.2 223.304C1656.14 227.723 1664.92 229.932 1674.56 229.932C1684.19 229.932 1693.03 227.723 1701.06 223.304C1709.09 218.886 1715.46 212.483 1720.19 204.097C1724.91 195.711 1727.27 185.928 1727.27 174.746C1727.27 163.565 1724.91 153.826 1720.19 145.531ZM1828.45 121.184V208.561C1828.45 215.775 1830.05 220.869 1833.27 223.845C1836.48 226.821 1842.05 228.309 1849.99 228.309C1862.65 228.309 1868.98 228.309 1868.98 228.309V249.138H1845.74C1831.38 249.138 1820.61 245.982 1813.43 239.67C1806.25 233.358 1802.66 222.989 1802.66 208.561C1802.66 150.31 1802.66 121.184 1802.66 121.184H1782.54V100.895H1802.66V63.564H1828.45V100.895H1868.98V121.184H1828.45ZM1928.35 242.105C1916.54 235.793 1907.28 226.821 1900.58 215.189C1893.87 203.556 1890.51 190.076 1890.51 174.746C1890.51 159.597 1893.96 146.207 1900.86 134.575C1907.76 122.942 1917.15 114.015 1929.06 107.793C1940.96 101.572 1954.28 98.4606 1969.02 98.4606C1983.76 98.4606 1997.08 101.572 2008.98 107.793C2020.88 114.015 2030.28 122.897 2037.18 134.439C2044.07 145.981 2047.52 159.417 2047.52 174.746C2047.52 190.076 2043.98 203.556 2036.89 215.189C2029.81 226.821 2020.22 235.793 2008.13 242.105C1996.04 248.417 1982.62 251.573 1967.88 251.573C1953.34 251.573 1940.16 248.417 1928.35 242.105ZM1993.96 223.71C2002.08 219.562 2008.65 213.34 2013.65 205.044C2018.66 196.748 2021.17 186.649 2021.17 174.746C2021.17 162.844 2018.71 152.744 2013.8 144.448C2008.88 136.153 2002.46 129.976 1994.52 125.918C1986.59 121.86 1977.99 119.831 1968.73 119.831C1959.29 119.831 1950.64 121.86 1942.8 125.918C1934.96 129.976 1928.68 136.153 1923.96 144.448C1919.23 152.744 1916.87 162.844 1916.87 174.746C1916.87 186.829 1919.19 197.019 1923.81 205.315C1928.44 213.611 1934.63 219.787 1942.38 223.845C1950.12 227.903 1958.63 229.932 1967.88 229.932C1977.14 229.932 1985.83 227.858 1993.96 223.71ZM2126.73 105.224C2135.14 100.535 2145.39 98.1901 2157.48 98.1901C2157.48 115.143 2157.48 123.619 2157.48 123.619H2150.68C2121.77 123.619 2107.32 138.587 2107.32 168.524C2107.32 222.267 2107.32 249.138 2107.32 249.138H2081.53V100.895H2107.32V124.971C2111.86 116.495 2118.33 109.913 2126.73 105.224Z" fill="#0574B4"/>
<path d="M2264.5 48.9561V249.138H2238.71V48.9561H2264.5ZM2449.28 184.214H2325.15C2326.1 198.822 2331.34 210.229 2340.88 218.435C2350.42 226.64 2361.99 230.743 2375.6 230.743C2386.75 230.743 2396.05 228.264 2403.51 223.304C2410.98 218.345 2416.22 211.717 2419.24 203.421C2437.76 203.421 2447.02 203.421 2447.02 203.421C2442.86 217.668 2434.55 229.255 2422.08 238.182C2409.61 247.11 2394.11 251.573 2375.6 251.573C2360.86 251.573 2347.68 248.417 2336.06 242.105C2324.44 235.793 2315.33 226.821 2308.71 215.189C2302.1 203.556 2298.8 190.076 2298.8 174.746C2298.8 159.417 2302.01 145.981 2308.43 134.439C2314.86 122.897 2323.88 114.015 2335.5 107.793C2347.12 101.572 2360.48 98.4606 2375.6 98.4606C2390.34 98.4606 2403.37 101.526 2414.71 107.658C2426.04 113.79 2434.78 122.221 2440.92 132.952C2447.06 143.682 2450.13 155.81 2450.13 169.336C2450.13 174.025 2449.85 178.984 2449.28 184.214ZM2416.98 139.985C2412.63 133.222 2406.73 128.082 2399.26 124.565C2391.8 121.049 2383.53 119.29 2374.46 119.29C2361.43 119.29 2350.33 123.258 2341.16 131.193C2332 139.128 2326.76 150.129 2325.44 164.196C2390.81 164.196 2423.49 164.196 2423.49 164.196C2423.49 154.818 2421.32 146.748 2416.98 139.985ZM2484.14 134.575C2490.57 123.123 2499.4 114.241 2510.64 107.929C2521.88 101.617 2534.4 98.4606 2548.19 98.4606C2561.8 98.4606 2573.61 101.256 2583.62 106.847C2593.63 112.437 2601.1 119.471 2606.01 127.947C2606.01 109.913 2606.01 100.895 2606.01 100.895H2632.08V249.138H2606.01V221.546C2600.91 230.202 2593.3 237.371 2583.19 243.052C2573.09 248.733 2561.32 251.573 2547.91 251.573C2534.12 251.573 2521.65 248.327 2510.5 241.834C2499.35 235.342 2490.57 226.235 2484.14 214.512C2477.72 202.79 2474.51 189.444 2474.51 174.476C2474.51 159.327 2477.72 146.027 2484.14 134.575ZM2598.92 145.531C2594.2 137.235 2587.82 130.878 2579.79 126.459C2571.76 122.041 2562.93 119.831 2553.29 119.831C2543.66 119.831 2534.87 121.996 2526.94 126.324C2519 130.652 2512.67 136.964 2507.95 145.26C2503.23 153.556 2500.86 163.294 2500.86 174.476C2500.86 185.838 2503.23 195.711 2507.95 204.097C2512.67 212.483 2519 218.886 2526.94 223.304C2534.87 227.723 2543.66 229.932 2553.29 229.932C2562.93 229.932 2571.76 227.723 2579.79 223.304C2587.82 218.886 2594.2 212.483 2598.92 204.097C2603.65 195.711 2606.01 185.928 2606.01 174.746C2606.01 163.565 2603.65 153.826 2598.92 145.531ZM2720.93 105.224C2729.34 100.535 2739.59 98.1901 2751.68 98.1901C2751.68 115.143 2751.68 123.619 2751.68 123.619H2744.88C2715.97 123.619 2701.52 138.587 2701.52 168.524C2701.52 222.267 2701.52 249.138 2701.52 249.138H2675.73V100.895H2701.52V124.971C2706.05 116.495 2712.52 109.913 2720.93 105.224ZM2903.02 114.556C2914.73 125.467 2920.59 141.202 2920.59 161.762C2920.59 220.013 2920.59 249.138 2920.59 249.138H2895.08V165.278C2895.08 150.49 2891.21 139.173 2883.46 131.328C2875.72 123.483 2865.14 119.561 2851.72 119.561C2838.12 119.561 2827.3 123.619 2819.27 131.734C2811.24 139.85 2807.23 151.662 2807.23 167.172C2807.23 221.816 2807.23 249.138 2807.23 249.138H2781.44V100.895H2807.23V121.996C2812.33 114.421 2819.27 108.56 2828.06 104.412C2836.84 100.264 2846.53 98.1901 2857.11 98.1901C2876 98.1901 2891.3 103.646 2903.02 114.556ZM2963.67 71.95C2960.27 68.7038 2958.57 64.7362 2958.57 60.0472C2958.57 55.3583 2960.27 51.3907 2963.67 48.1445C2967.07 44.8983 2971.22 43.2752 2976.14 43.2752C2980.86 43.2752 2984.88 44.8983 2988.18 48.1445C2991.49 51.3907 2993.14 55.3583 2993.14 60.0472C2993.14 64.7362 2991.49 68.7038 2988.18 71.95C2984.88 75.1962 2980.86 76.8193 2976.14 76.8193C2971.22 76.8193 2967.07 75.1962 2963.67 71.95ZM2988.61 100.895V249.138H2962.82V100.895H2988.61ZM3154.12 114.556C3165.83 125.467 3171.69 141.202 3171.69 161.762C3171.69 220.013 3171.69 249.138 3171.69 249.138H3146.18V165.278C3146.18 150.49 3142.31 139.173 3134.56 131.328C3126.82 123.483 3116.23 119.561 3102.82 119.561C3089.22 119.561 3078.4 123.619 3070.37 131.734C3062.34 139.85 3058.33 151.662 3058.33 167.172C3058.33 221.816 3058.33 249.138 3058.33 249.138H3032.54V100.895H3058.33V121.996C3063.43 114.421 3070.37 108.56 3079.16 104.412C3087.94 100.264 3097.62 98.1901 3108.2 98.1901C3127.1 98.1901 3142.4 103.646 3154.12 114.556ZM3313.25 106.847C3323.36 112.437 3330.87 119.471 3335.78 127.947C3335.78 109.913 3335.78 100.895 3335.78 100.895H3361.85V252.385C3361.85 265.91 3358.83 277.949 3352.78 288.499C3346.74 299.049 3338.09 307.3 3326.85 313.251C3315.61 319.202 3302.53 322.178 3287.6 322.178C3267.2 322.178 3250.19 317.579 3236.59 308.382C3222.98 299.184 3214.95 286.65 3212.5 270.78C3229.5 270.78 3238.01 270.78 3238.01 270.78C3240.84 279.797 3246.7 287.056 3255.58 292.556C3264.46 298.057 3275.13 300.807 3287.6 300.807C3301.77 300.807 3313.34 296.569 3322.32 288.093C3331.29 279.617 3335.78 267.714 3335.78 252.385C3335.78 231.645 3335.78 221.275 3335.78 221.275C3330.68 229.932 3323.12 237.146 3313.11 242.917C3303.09 248.688 3291.38 251.573 3277.97 251.573C3264.17 251.573 3251.66 248.327 3240.41 241.834C3229.17 235.342 3220.34 226.235 3213.92 214.512C3207.49 202.79 3204.28 189.444 3204.28 174.476C3204.28 159.327 3207.49 146.027 3213.92 134.575C3220.34 123.123 3229.17 114.241 3240.41 107.929C3251.66 101.617 3264.17 98.4606 3277.97 98.4606C3291.38 98.4606 3303.14 101.256 3313.25 106.847ZM3328.7 145.531C3323.97 137.235 3317.6 130.878 3309.57 126.459C3301.54 122.041 3292.7 119.831 3283.07 119.831C3273.43 119.831 3264.65 121.996 3256.71 126.324C3248.77 130.652 3242.45 136.964 3237.72 145.26C3233 153.556 3230.64 163.294 3230.64 174.476C3230.64 185.838 3233 195.711 3237.72 204.097C3242.45 212.483 3248.77 218.886 3256.71 223.304C3264.65 227.723 3273.43 229.932 3283.07 229.932C3292.7 229.932 3301.54 227.723 3309.57 223.304C3317.6 218.886 3323.97 212.483 3328.7 204.097C3333.42 195.711 3335.78 185.928 3335.78 174.746C3335.78 163.565 3333.42 153.826 3328.7 145.531Z" fill="#78B4D6"/>
<path d="M2757.03 1452.78C2615.26 1319.02 2462.89 972 2314.26 761.669C2297.66 758.923 2281.18 760.096 2264.87 765.763C2256.11 768.802 2247.39 773.149 2238.71 778.656C2350.53 971.284 2462.38 1189.54 2568.23 1287.27L2581.59 1298.99L2757.03 1452.78Z" fill="#0574B4"/>
<path d="M2738.25 1318.58C2777.51 1386.72 2816.53 1451.75 2855.01 1507.19C2997.86 1522.27 3127.23 1215.38 3254.98 911.789L3063.61 743.869C2957.97 994.884 2852.34 1245.9 2738.25 1318.58Z" fill="#0574B4"/>
<path d="M1539.42 1355.42C1717.15 1317.75 1886.07 662.429 2073.1 597.482C2109.74 584.762 2147.18 594.682 2185.17 620.949L2032.21 484.789L2011.73 466.563C1967.45 430.163 1923.85 414.456 1881.33 429.216C1716.83 486.336 1568.51 999.644 1414.26 1148.14C1457.27 1218.15 1498.89 1291.91 1539.42 1355.42Z" fill="#0574B4"/>
<path d="M341.643 1106.45C288.125 1057.9 239.951 961.265 191.775 864.629L0 696.349C49.5827 795.816 99.1653 895.269 154.571 942.31L341.643 1106.45Z" fill="#569DAA"/>
<path d="M341.641 1106.45C288.125 1057.9 239.951 961.264 191.775 864.629L0 696.349C49.5827 795.816 99.1653 895.269 154.571 942.31L341.641 1106.45Z" fill="#569DAA"/>
<path d="M331.103 1097.21C289.239 1053.88 250.424 981.417 212.287 905.602C212.285 905.602 212.284 905.602 212.283 905.589C205.436 892.029 198.605 878.323 191.775 864.629L0 696.349C49.5827 795.816 99.1653 895.269 154.571 942.31L331.103 1097.21Z" fill="#0574B4"/>
<path d="M436.18 1135.67C585.049 1098.8 771.732 733.469 936.059 717.536C965.105 714.723 994.712 720.682 1023.35 735.416L878.093 607.989L862.296 594.136C824.209 562.762 784.931 545.323 744.285 549.269C595.495 563.682 428.377 864.562 287.597 948.705L383.549 1032.9C401.008 1067.92 418.467 1102.94 436.18 1135.67Z" fill="#0574B4"/>
<path d="M1440.09 1309.78C1352.87 1222.26 1261.61 1029.58 1162.58 887.536C1151.11 885.309 1139.53 884.682 1127.83 885.816C1112.96 887.256 1097.9 891.563 1082.7 898.229C1151.17 1013.77 1216.26 1124.09 1279.41 1168.11L1440.09 1309.78Z" fill="#0574B4"/>
<path d="M1709.73 1524.26C1888.29 1545.14 2053.83 896.069 2238.71 778.656C2247.39 773.149 2256.11 768.803 2264.87 765.763C2281.18 760.096 2297.66 758.923 2314.26 761.669C2331.59 764.549 2349.09 771.709 2366.69 782.523L2243.39 672.776L2185.17 620.949C2147.18 594.683 2109.74 584.763 2073.1 597.483C1886.07 662.429 1717.15 1317.75 1539.42 1355.42C1575.38 1411.76 1610.5 1460.03 1644.99 1490.44C1666.81 1509.67 1688.35 1521.76 1709.73 1524.26Z" fill="#78B4D6"/>
<path d="M2776.27 1469.63L2946.54 1618.88C2916.46 1590.04 2885.9 1551.71 2855.01 1507.19C2816.53 1451.75 2777.51 1386.72 2738.25 1318.58C2614.18 1103.25 2487.54 856.763 2366.69 782.523C2349.09 771.709 2331.59 764.549 2314.26 761.669C2462.89 972 2615.26 1319.02 2757.03 1452.78L2776.27 1469.63Z" fill="#78B4D6"/>
<path d="M3254.98 911.789C3127.23 1215.38 2997.86 1522.27 2855.01 1507.19C2885.9 1551.71 2916.46 1590.04 2946.54 1618.88C2978.75 1649.78 3010.43 1669.76 3041.41 1674.75C3187.17 1698.23 3317.15 1389.32 3447.15 1080.41L3254.98 911.789Z" fill="#78B4D6"/>
<path d="M589.691 1305.62C731.065 1331.5 915.287 971.654 1082.7 898.229C1097.9 891.563 1112.96 887.256 1127.83 885.816C1139.53 884.682 1151.11 885.309 1162.58 887.536C1191.81 893.216 1220.33 909.229 1248.21 932.647L1023.35 735.416C994.712 720.682 965.105 714.723 936.059 717.536C771.732 733.469 585.049 1098.8 436.18 1135.67C467.311 1193.2 499.228 1243.67 533.309 1274.63C551.423 1291.08 570.147 1302.04 589.691 1305.62Z" fill="#78B4D6"/>
<path d="M1539.42 1355.42C1498.89 1291.91 1457.27 1218.15 1414.26 1148.14C1361.25 1061.85 1306.1 981.28 1248.21 932.646C1220.33 909.229 1191.81 893.216 1162.58 887.536C1261.61 1029.58 1352.87 1222.26 1440.09 1309.78L1465.99 1332.62L1644.99 1490.44C1610.5 1460.03 1575.38 1411.76 1539.42 1355.42Z" fill="#78B4D6"/>
<path d="M436.18 1135.67C418.467 1102.94 401.008 1067.92 383.549 1032.9L287.597 948.705L191.775 864.629C198.608 878.336 205.441 892.042 212.289 905.616C253.723 987.709 295.715 1064.79 341.64 1106.45L533.309 1274.63C499.228 1243.67 467.311 1193.2 436.18 1135.67Z" fill="#78B4D6"/>
</g>
<defs>
<clipPath id="clip0_1_2">
<rect width="3447" height="1676" fill="white"/>
</clipPath>
</defs>
</svg>
