<?xml version="1.0" encoding="UTF-8" standalone="no"?><!DOCTYPE svg PUBLIC "-//W3C//DTD SVG 1.1//EN" "http://www.w3.org/Graphics/SVG/1.1/DTD/svg11.dtd"><svg width="100%" height="100%" viewBox="0 0 2829 714" version="1.1" xmlns="http://www.w3.org/2000/svg" xmlns:xlink="http://www.w3.org/1999/xlink" xml:space="preserve" xmlns:serif="http://www.serif.com/" style="fill-rule:evenodd;clip-rule:evenodd;stroke-miterlimit:10;"><rect id="Artboard1" x="0" y="0" width="2828.46" height="713.862" style="fill:none;"/><g id="XMLID_00000109709564331519897510000016852072943903339920_"></g><g id="XMLID_00000040540247660212639630000002019787730748667061_"><path d="M85.721,520.475c-0,50.375 -0,78.416 18.292,96.708c18.291,18.292 46.333,18.292 96.708,18.292l345,-0c50.375,-0 78.417,-0 96.708,-18.292c18.292,-18.292 18.292,-46.292 18.292,-96.708l-0,-345c-0,-50.375 -0,-78.417 -18.292,-96.709c-18.291,-18.291 -46.333,-18.291 -96.708,-18.291l-345,-0c-50.375,-0 -78.417,-0 -96.708,18.291c-18.292,18.292 -18.292,46.334 -18.292,96.709l-0,345Z" style="fill:#f00;fill-rule:nonzero;"/><path id="XMLID_00000078733318996571568460000015652521994307878047_" d="M354.346,132.35l-0,431.25c-0,13.458 -11.042,24.458 -24.458,24.458l-47.584,-0c-13.416,-0 -24.458,-11 -24.458,-24.458l-0,-431.25c-0,-13.459 11,-24.459 24.458,-24.459l47.584,0c13.458,0 24.458,11.042 24.458,24.459" style="fill:#fff;"/><path id="XMLID_00000171718291121535401440000007257378582695081139_" d="M487.304,252.141l0,191.167c0,13.458 -11.041,24.458 -24.458,24.458l-47.583,0c-13.417,0 -24.459,-11 -24.459,-24.458l0,-191.167c0,-13.458 11,-24.458 24.459,-24.458l47.583,-0c13.458,-0 24.458,11.042 24.458,24.458" style="fill:#fff;"/><path id="XMLID_00000103253092246686722500000002695500779544695482_" d="M619.638,324.433l-0,47c-0,13.458 -11.042,24.458 -24.459,24.458l-46.958,0c-13.417,0 -24.458,-11 -24.458,-24.458l-0,-47c-0,-13.458 11,-24.458 24.458,-24.458l46.958,-0c13.459,-0 24.459,11 24.459,24.458" style="fill:#fff;"/><path id="XMLID_00000174564214834234760000000007109640832849294465_" d="M222.679,324.433l0,47c0,13.458 -11.041,24.458 -24.458,24.458l-46.958,0c-13.417,0 -24.459,-11 -24.459,-24.458l0,-47c0,-13.458 11,-24.458 24.459,-24.458l46.958,-0c13.458,-0 24.458,11 24.458,24.458" style="fill:#fff;"/></g><g><g><path d="M808.336,524.799l-0,-265.602l29.593,0l0,25.155c7.029,-9.988 14.797,-17.016 23.675,-21.825c8.878,-5.179 19.606,-7.399 31.813,-7.399c16.646,0 31.073,4.069 43.65,12.577c12.207,8.509 21.825,20.346 28.114,35.513c6.288,15.536 9.618,32.183 9.618,50.678c-0,19.606 -3.33,37.362 -10.358,52.899c-7.028,15.906 -17.386,27.744 -30.703,36.252c-13.687,8.138 -27.744,12.577 -42.541,12.577c-10.727,0 -20.715,-2.22 -29.223,-7.028c-8.508,-4.439 -15.537,-10.358 -21.086,-17.387l0,93.59l-32.552,-0Zm29.593,-168.313c0,24.414 4.809,42.91 14.797,54.748c9.988,11.837 22.195,17.386 36.252,17.386c14.427,-0 27.004,-5.919 37.361,-18.126c9.988,-12.207 15.167,-31.073 15.167,-56.967c0,-24.415 -4.809,-42.541 -15.167,-54.748c-9.987,-12.208 -21.825,-18.126 -35.882,-18.126c-13.686,-0 -25.894,6.288 -36.621,19.235c-10.728,12.947 -15.907,31.813 -15.907,56.598Z" style="fill:#ff9016;fill-rule:nonzero;"/></g><g><path d="M1090.64,421.961l4.809,28.854c-9.248,1.85 -17.386,2.959 -24.784,2.959c-11.838,0 -21.085,-1.849 -27.374,-5.548c-6.659,-3.7 -11.098,-8.878 -13.687,-14.797c-2.589,-6.289 -4.069,-18.866 -4.069,-38.472l-0,-110.235l-23.675,-0l0,-25.525l23.675,0l-0,-47.349l32.183,-19.606l-0,66.955l32.922,0l0,25.525l-32.922,-0l-0,112.085c-0,9.248 0.74,15.167 1.849,17.756c1.11,2.959 2.96,4.809 5.549,6.289c2.59,1.849 6.289,2.589 11.098,2.589c3.699,0 8.508,-0.37 14.426,-1.48Z" style="fill:#ff9016;fill-rule:nonzero;"/></g><g><path d="M1127.94,451.185l0,-191.988l29.224,0l-0,27.374c14.057,-21.085 34.402,-31.443 61.036,-31.443c11.468,0 22.195,1.85 31.813,6.289c9.618,4.069 17.016,9.618 21.825,16.276c4.809,6.659 8.139,14.797 9.988,24.045c1.48,5.919 1.85,16.276 1.85,31.443l-0,118.004l-32.553,-0l0,-116.524c0,-13.317 -1.11,-23.305 -3.699,-29.964c-2.59,-6.288 -7.029,-11.837 -13.317,-15.536c-6.659,-4.069 -14.057,-5.919 -22.565,-5.919c-14.057,0 -25.894,4.439 -35.882,13.317c-10.358,8.508 -15.167,25.155 -15.167,49.939l0,104.687l-32.553,-0Z" style="fill:#ff9016;fill-rule:nonzero;"/></g><g><path d="M1464.25,427.51c-11.837,10.358 -23.675,17.386 -34.772,21.825c-11.098,4.069 -22.935,6.289 -35.882,6.289c-21.085,0 -36.992,-5.179 -48.459,-15.537c-11.468,-10.357 -17.017,-23.304 -17.017,-39.581c0,-9.248 2.22,-17.756 6.289,-25.524c4.439,-7.768 9.988,-14.057 17.016,-18.866c7.029,-4.809 14.797,-8.138 23.305,-10.728c6.289,-1.479 15.906,-3.329 28.854,-4.809c26.264,-2.959 45.499,-6.658 58.077,-11.097l-0,-8.508c-0,-13.317 -2.96,-22.565 -8.878,-28.114c-8.508,-7.398 -20.716,-11.098 -37.362,-11.098c-15.167,0 -26.264,2.96 -33.663,8.139c-7.398,5.548 -12.577,14.796 -16.276,28.483l-31.813,-4.439c2.959,-13.317 7.768,-24.414 14.427,-32.922c6.658,-8.139 16.276,-14.797 28.484,-19.236c12.577,-4.439 27.374,-6.659 43.65,-6.659c16.276,0 29.593,1.85 39.951,5.549c10.358,4.069 17.756,8.878 22.565,14.797c4.809,5.549 8.138,12.947 9.988,21.825c1.11,5.549 1.849,15.536 1.849,30.333l0,43.281c0,29.963 0.74,49.199 1.85,57.337c1.48,7.768 4.439,15.537 8.508,22.935l-34.032,-0c-3.33,-6.659 -5.549,-14.797 -6.659,-23.675Zm-2.589,-72.504c-11.838,4.809 -29.594,8.878 -53.268,12.208c-13.318,1.849 -22.565,4.069 -28.114,6.658c-5.549,2.22 -9.988,5.919 -12.947,10.358c-2.96,4.809 -4.439,9.988 -4.439,15.536c-0,8.508 3.329,15.907 9.618,21.456c6.658,5.918 16.276,8.878 28.853,8.878c12.577,-0 23.675,-2.96 33.663,-8.139c9.617,-5.548 16.646,-12.947 21.455,-22.565c3.329,-7.398 5.179,-18.126 5.179,-32.552l-0,-11.838Z" style="fill:#ff9016;fill-rule:nonzero;"/></g><g><path d="M1674.79,451.185l-0,-24.045c-12.208,18.866 -29.964,28.484 -53.638,28.484c-15.167,0 -29.224,-4.439 -42.171,-12.577c-12.577,-8.508 -22.565,-20.346 -29.593,-35.512c-7.029,-15.167 -10.728,-32.553 -10.728,-52.159c0,-19.236 3.329,-36.622 9.618,-52.158c6.288,-15.537 15.906,-27.374 28.853,-35.882c12.578,-8.139 27.004,-12.208 42.541,-12.208c11.837,0 22.195,2.22 31.073,7.399c8.878,4.809 16.276,11.097 21.825,18.865l0,-95.069l32.553,0l-0,264.862l-30.333,-0Zm-102.467,-95.809c-0,24.785 5.178,42.911 15.536,55.118c9.988,12.207 22.565,18.126 36.622,18.126c14.057,-0 26.264,-5.549 36.252,-17.386c9.618,-11.468 14.797,-29.224 14.797,-52.899c-0,-26.264 -5.179,-45.869 -15.167,-58.077c-10.358,-12.207 -22.565,-18.496 -37.362,-18.496c-14.427,0 -26.634,5.919 -36.252,17.756c-9.618,11.838 -14.426,30.704 -14.426,55.858Z" style="fill:#ff9016;fill-rule:nonzero;"/></g><g><rect x="1749.2" y="339.1" width="99.878" height="32.553" style="fill:#ff9016;"/></g><g><path d="M2015.54,380.9l32.182,4.07c-3.699,22.195 -12.577,39.211 -27.004,51.788c-14.426,12.577 -31.813,18.866 -52.898,18.866c-26.264,0 -47.349,-8.508 -63.256,-25.894c-15.906,-17.017 -24.044,-41.801 -24.044,-73.614c-0,-20.715 3.329,-38.841 10.357,-54.378c6.659,-15.537 17.386,-27.374 31.443,-35.142c14.057,-7.769 29.224,-11.468 45.5,-11.468c21.085,0 38.102,5.179 51.419,15.537c12.947,10.727 21.455,25.524 25.154,45.13l-31.443,4.809c-2.959,-12.947 -8.508,-22.565 -15.906,-29.224c-7.769,-6.288 -17.017,-9.618 -27.744,-9.618c-16.277,0 -29.594,5.919 -39.951,17.756c-10.358,11.468 -15.537,30.334 -15.537,55.488c0,25.894 5.179,44.76 14.797,56.228c9.988,11.837 22.935,17.386 38.841,17.386c12.577,-0 23.305,-3.699 31.813,-11.468c8.508,-7.768 14.057,-19.975 16.277,-36.252Z" style="fill:#ff9016;fill-rule:nonzero;"/></g><g><rect x="2080.28" y="186.323" width="32.553" height="264.862" style="fill:#ff9016;"/></g><g><path d="M2168.75,223.685l0,-37.362l32.553,0l-0,37.362l-32.553,0Zm0,227.5l0,-191.988l32.553,0l-0,191.988l-32.553,-0Z" style="fill:#ff9016;fill-rule:nonzero;"/></g><g><path d="M2387.8,389.409l33.663,4.069c-5.549,19.605 -15.167,34.772 -29.594,45.87c-14.427,10.727 -32.553,16.276 -54.748,16.276c-28.113,0 -50.308,-8.878 -66.955,-25.894c-16.276,-17.386 -24.414,-41.801 -24.414,-72.874c-0,-32.183 8.138,-57.338 24.784,-75.094c16.646,-17.756 38.102,-26.634 64.736,-26.634c25.524,0 46.609,8.508 62.886,26.264c16.276,17.387 24.414,41.801 24.414,73.614c0,1.85 -0.37,4.809 -0.37,8.508l-143.158,0c1.48,21.086 7.399,37.362 18.126,48.46c10.728,11.097 24.045,16.646 39.951,16.646c11.838,-0 22.195,-2.959 30.703,-9.248c8.139,-6.289 15.167,-16.276 19.976,-29.963Zm-106.906,-52.529l107.276,0c-1.48,-16.276 -5.549,-28.114 -12.207,-36.252c-10.358,-12.577 -24.045,-18.866 -40.321,-18.866c-15.167,0 -27.744,5.179 -37.732,15.167c-10.358,9.988 -15.906,23.305 -17.016,39.951Z" style="fill:#ff9016;fill-rule:nonzero;"/></g><g><path d="M2467.76,451.185l-0,-191.988l29.223,0l0,27.374c14.057,-21.085 34.403,-31.443 61.037,-31.443c11.467,0 22.195,1.85 31.813,6.289c9.617,4.069 17.016,9.618 21.825,16.276c4.809,6.659 8.138,14.797 9.988,24.045c1.479,5.919 1.849,16.276 1.849,31.443l0,118.004l-32.553,-0l0,-116.524c0,-13.317 -1.109,-23.305 -3.699,-29.964c-2.589,-6.288 -7.028,-11.837 -13.317,-15.536c-6.658,-4.069 -14.057,-5.919 -22.565,-5.919c-14.057,0 -25.894,4.439 -35.882,13.317c-10.358,8.508 -15.166,25.155 -15.166,49.939l-0,104.687l-32.553,-0Z" style="fill:#ff9016;fill-rule:nonzero;"/></g><g><path d="M2750.06,421.961l4.809,28.854c-9.248,1.85 -17.386,2.959 -24.784,2.959c-11.837,0 -21.085,-1.849 -27.374,-5.548c-6.659,-3.7 -11.098,-8.878 -13.687,-14.797c-2.589,-6.289 -4.069,-18.866 -4.069,-38.472l-0,-110.235l-23.675,-0l0,-25.525l23.675,0l-0,-47.349l32.183,-19.606l-0,66.955l32.922,0l0,25.525l-32.922,-0l-0,112.085c-0,9.248 0.74,15.167 1.849,17.756c1.11,2.959 2.96,4.809 5.549,6.289c2.59,1.849 6.289,2.589 11.098,2.589c3.699,0 8.508,-0.37 14.426,-1.48Z" style="fill:#ff9016;fill-rule:nonzero;"/></g></g><g><path d="M429.683,549.381c-0,-0 26.216,23.797 39.138,16.021" style="fill:#9b95ff;fill-rule:nonzero;stroke:#b2a3ff;stroke-width:6.63px;"/></g><g><path d="M431.542,551.897c-0,-0 26.594,23.311 21.842,38.383" style="fill:#9b95ff;fill-rule:nonzero;stroke:#b2a3ff;stroke-width:6.68px;"/></g><g><g><clipPath id="_clip1"><path d="M85.884,-34.758l-0.711,624.273l575.21,0.719l0.711,-624.272l-575.21,-0.72Z"/></clipPath><g clip-path="url(#_clip1)"><g><path d="M-130.095,208.28c0,-0 12.496,110.438 187.184,160.663c174.695,50.22 249.507,-3.856 325.138,78.534c54.586,59.465 61.16,88.484 60.597,100.031c-0.179,3.625 -2.324,6.765 -5.436,8.195c-14.541,6.704 -66.208,27.81 -100.921,7.353c-40.749,-24.009 -53.302,-84.446 -120.282,-90.783c-66.344,-6.275 -174.677,49.755 -306.831,-41.498c-2.378,-1.638 -3.899,-4.381 -4.126,-7.404c-7.287,-95.138 -35.323,-215.091 -35.323,-215.091" style="fill:#ffca00;fill-rule:nonzero;"/></g><g><path d="M680.464,198.875c-3.223,-4.936 -9.705,-5.42 -13.782,-1.284c-11.624,11.794 -38.923,28.715 -88.846,4.755c-70.247,-33.71 -115.064,-93.739 -178.565,-101.083c-63.507,-7.35 -94.017,16.234 -102.527,52.573c-8.51,36.339 -0.96,97.226 23.615,86.353c24.569,-10.873 -4.972,-98.144 62.764,-91.7c67.743,6.452 123.469,150.089 256.408,161.159c110.395,9.199 60.896,-80.188 40.933,-110.773" style="fill:#ffca00;fill-rule:nonzero;"/></g></g></g></g><g><path d="M388.338,526.908c0,-0 -11.663,-29.268 -31.607,-41.253c-19.935,-11.987 -46.268,-7.512 -46.268,-7.512c0,0 5.729,21.473 31.061,37.413c23.621,14.861 46.814,11.352 46.814,11.352" style="fill:#fff;fill-rule:nonzero;"/></g><g><path d="M338.57,493.869c-3.463,6.649 -1.252,15.064 4.941,18.786c6.198,3.726 14.025,1.343 17.488,-5.305c3.468,-6.646 1.258,-15.062 -4.938,-18.778c-6.193,-3.722 -14.028,-1.352 -17.491,5.297" style="fill:#1d1d1b;fill-rule:nonzero;"/></g><g><path d="M599.281,248.332c-23.95,0.059 -43.409,-17.592 -43.466,-39.419c-0.015,-5.783 1.363,-11.255 3.796,-16.214c5.768,3.263 11.636,6.432 17.759,9.345c28.79,13.694 49.995,13.823 65.035,9.229c-1.407,20.631 -20.129,37.002 -43.124,37.059" style="fill:#f99300;fill-rule:nonzero;"/></g><g><path d="M479.088,150.033c-0.01,-3.91 0.776,-7.61 2.046,-11.08c15.919,11.228 32.044,23.631 49.363,35.488c-5.421,4.488 -12.25,7.305 -19.809,7.32c-17.409,0.042 -31.553,-14.16 -31.6,-31.728" style="fill:#f99300;fill-rule:nonzero;"/></g><g><path d="M423.39,126.55c-13.662,0.034 -24.774,-10.623 -24.808,-23.792c-0.002,-0.379 0.097,-0.738 0.113,-1.118c16.021,1.812 30.865,6.995 45.245,14.257c-4.429,6.397 -11.968,10.631 -20.55,10.653" style="fill:#f99300;fill-rule:nonzero;"/></g><g><path d="M161.473,439.782c-36.8,0.092 -66.699,-25.26 -66.776,-56.632c-0.005,-1.241 0.12,-2.451 0.209,-3.676c52.569,11.625 95.233,14.058 131.476,15.653c-6.528,25.466 -33.062,44.581 -64.909,44.655" style="fill:#f99300;fill-rule:nonzero;"/></g><g id="XMLID_00000040540247660212639630000002019787730748667061_1" serif:id="XMLID_00000040540247660212639630000002019787730748667061_"><path d="M85.721,520.475c-0,50.375 -0,78.416 18.292,96.708c18.291,18.292 46.333,18.292 96.708,18.292l345,-0c50.375,-0 78.417,-0 96.708,-18.292c18.292,-18.292 18.292,-46.292 18.292,-96.708l-0,-345c-0,-50.375 -0,-78.417 -18.292,-96.709c-18.291,-18.291 -46.333,-18.291 -96.708,-18.291l-345,-0c-50.375,-0 -78.417,-0 -96.708,18.291c-18.292,18.292 -18.292,46.334 -18.292,96.709l-0,345Z" style="fill:#f00;fill-rule:nonzero;"/><path id="XMLID_00000078733318996571568460000015652521994307878047_1" serif:id="XMLID_00000078733318996571568460000015652521994307878047_" d="M354.346,132.35l-0,431.25c-0,13.458 -11.042,24.458 -24.458,24.458l-47.584,-0c-13.416,-0 -24.458,-11 -24.458,-24.458l-0,-431.25c-0,-13.459 11,-24.459 24.458,-24.459l47.584,0c13.458,0 24.458,11.042 24.458,24.459" style="fill:#fff;"/><path id="XMLID_00000171718291121535401440000007257378582695081139_1" serif:id="XMLID_00000171718291121535401440000007257378582695081139_" d="M487.304,252.141l0,191.167c0,13.458 -11.041,24.458 -24.458,24.458l-47.583,0c-13.417,0 -24.459,-11 -24.459,-24.458l0,-191.167c0,-13.458 11,-24.458 24.459,-24.458l47.583,-0c13.458,-0 24.458,11.042 24.458,24.458" style="fill:#fff;"/><path id="XMLID_00000103253092246686722500000002695500779544695482_1" serif:id="XMLID_00000103253092246686722500000002695500779544695482_" d="M619.638,324.433l-0,47c-0,13.458 -11.042,24.458 -24.459,24.458l-46.958,0c-13.417,0 -24.458,-11 -24.458,-24.458l-0,-47c-0,-13.458 11,-24.458 24.458,-24.458l46.958,-0c13.459,-0 24.459,11 24.459,24.458" style="fill:#fff;"/><path id="XMLID_00000174564214834234760000000007109640832849294465_1" serif:id="XMLID_00000174564214834234760000000007109640832849294465_" d="M222.679,324.433l0,47c0,13.458 -11.041,24.458 -24.458,24.458l-46.958,0c-13.417,0 -24.459,-11 -24.459,-24.458l0,-47c0,-13.458 11,-24.458 24.459,-24.458l46.958,-0c13.458,-0 24.458,11 24.458,24.458" style="fill:#fff;"/></g><g><g><path d="M808.336,524.799l-0,-265.602l29.593,0l0,25.155c7.029,-9.988 14.797,-17.016 23.675,-21.825c8.878,-5.179 19.606,-7.399 31.813,-7.399c16.646,0 31.073,4.069 43.65,12.577c12.207,8.509 21.825,20.346 28.114,35.513c6.288,15.536 9.618,32.183 9.618,50.678c-0,19.606 -3.33,37.362 -10.358,52.899c-7.028,15.906 -17.386,27.744 -30.703,36.252c-13.687,8.138 -27.744,12.577 -42.541,12.577c-10.727,0 -20.715,-2.22 -29.223,-7.028c-8.508,-4.439 -15.537,-10.358 -21.086,-17.387l0,93.59l-32.552,-0Zm29.593,-168.313c0,24.414 4.809,42.91 14.797,54.748c9.988,11.837 22.195,17.386 36.252,17.386c14.427,-0 27.004,-5.919 37.361,-18.126c9.988,-12.207 15.167,-31.073 15.167,-56.967c0,-24.415 -4.809,-42.541 -15.167,-54.748c-9.987,-12.208 -21.825,-18.126 -35.882,-18.126c-13.686,-0 -25.894,6.288 -36.621,19.235c-10.728,12.947 -15.907,31.813 -15.907,56.598Z" style="fill:#ff9016;fill-rule:nonzero;"/></g><g><path d="M1090.64,421.961l4.809,28.854c-9.248,1.85 -17.386,2.959 -24.784,2.959c-11.838,0 -21.085,-1.849 -27.374,-5.548c-6.659,-3.7 -11.098,-8.878 -13.687,-14.797c-2.589,-6.289 -4.069,-18.866 -4.069,-38.472l-0,-110.235l-23.675,-0l0,-25.525l23.675,0l-0,-47.349l32.183,-19.606l-0,66.955l32.922,0l0,25.525l-32.922,-0l-0,112.085c-0,9.248 0.74,15.167 1.849,17.756c1.11,2.959 2.96,4.809 5.549,6.289c2.59,1.849 6.289,2.589 11.098,2.589c3.699,0 8.508,-0.37 14.426,-1.48Z" style="fill:#ff9016;fill-rule:nonzero;"/></g><g><path d="M1127.94,451.185l0,-191.988l29.224,0l-0,27.374c14.057,-21.085 34.402,-31.443 61.036,-31.443c11.468,0 22.195,1.85 31.813,6.289c9.618,4.069 17.016,9.618 21.825,16.276c4.809,6.659 8.139,14.797 9.988,24.045c1.48,5.919 1.85,16.276 1.85,31.443l-0,118.004l-32.553,-0l0,-116.524c0,-13.317 -1.11,-23.305 -3.699,-29.964c-2.59,-6.288 -7.029,-11.837 -13.317,-15.536c-6.659,-4.069 -14.057,-5.919 -22.565,-5.919c-14.057,0 -25.894,4.439 -35.882,13.317c-10.358,8.508 -15.167,25.155 -15.167,49.939l0,104.687l-32.553,-0Z" style="fill:#ff9016;fill-rule:nonzero;"/></g><g><path d="M1464.25,427.51c-11.837,10.358 -23.675,17.386 -34.772,21.825c-11.098,4.069 -22.935,6.289 -35.882,6.289c-21.085,0 -36.992,-5.179 -48.459,-15.537c-11.468,-10.357 -17.017,-23.304 -17.017,-39.581c0,-9.248 2.22,-17.756 6.289,-25.524c4.439,-7.768 9.988,-14.057 17.016,-18.866c7.029,-4.809 14.797,-8.138 23.305,-10.728c6.289,-1.479 15.906,-3.329 28.854,-4.809c26.264,-2.959 45.499,-6.658 58.077,-11.097l-0,-8.508c-0,-13.317 -2.96,-22.565 -8.878,-28.114c-8.508,-7.398 -20.716,-11.098 -37.362,-11.098c-15.167,0 -26.264,2.96 -33.663,8.139c-7.398,5.548 -12.577,14.796 -16.276,28.483l-31.813,-4.439c2.959,-13.317 7.768,-24.414 14.427,-32.922c6.658,-8.139 16.276,-14.797 28.484,-19.236c12.577,-4.439 27.374,-6.659 43.65,-6.659c16.276,0 29.593,1.85 39.951,5.549c10.358,4.069 17.756,8.878 22.565,14.797c4.809,5.549 8.138,12.947 9.988,21.825c1.11,5.549 1.849,15.536 1.849,30.333l0,43.281c0,29.963 0.74,49.199 1.85,57.337c1.48,7.768 4.439,15.537 8.508,22.935l-34.032,-0c-3.33,-6.659 -5.549,-14.797 -6.659,-23.675Zm-2.589,-72.504c-11.838,4.809 -29.594,8.878 -53.268,12.208c-13.318,1.849 -22.565,4.069 -28.114,6.658c-5.549,2.22 -9.988,5.919 -12.947,10.358c-2.96,4.809 -4.439,9.988 -4.439,15.536c-0,8.508 3.329,15.907 9.618,21.456c6.658,5.918 16.276,8.878 28.853,8.878c12.577,-0 23.675,-2.96 33.663,-8.139c9.617,-5.548 16.646,-12.947 21.455,-22.565c3.329,-7.398 5.179,-18.126 5.179,-32.552l-0,-11.838Z" style="fill:#ff9016;fill-rule:nonzero;"/></g><g><path d="M1674.79,451.185l-0,-24.045c-12.208,18.866 -29.964,28.484 -53.638,28.484c-15.167,0 -29.224,-4.439 -42.171,-12.577c-12.577,-8.508 -22.565,-20.346 -29.593,-35.512c-7.029,-15.167 -10.728,-32.553 -10.728,-52.159c0,-19.236 3.329,-36.622 9.618,-52.158c6.288,-15.537 15.906,-27.374 28.853,-35.882c12.578,-8.139 27.004,-12.208 42.541,-12.208c11.837,0 22.195,2.22 31.073,7.399c8.878,4.809 16.276,11.097 21.825,18.865l0,-95.069l32.553,0l-0,264.862l-30.333,-0Zm-102.467,-95.809c-0,24.785 5.178,42.911 15.536,55.118c9.988,12.207 22.565,18.126 36.622,18.126c14.057,-0 26.264,-5.549 36.252,-17.386c9.618,-11.468 14.797,-29.224 14.797,-52.899c-0,-26.264 -5.179,-45.869 -15.167,-58.077c-10.358,-12.207 -22.565,-18.496 -37.362,-18.496c-14.427,0 -26.634,5.919 -36.252,17.756c-9.618,11.838 -14.426,30.704 -14.426,55.858Z" style="fill:#ff9016;fill-rule:nonzero;"/></g><g><rect x="1749.2" y="339.1" width="99.878" height="32.553" style="fill:#ff9016;"/></g><g><path d="M2015.54,380.9l32.182,4.07c-3.699,22.195 -12.577,39.211 -27.004,51.788c-14.426,12.577 -31.813,18.866 -52.898,18.866c-26.264,0 -47.349,-8.508 -63.256,-25.894c-15.906,-17.017 -24.044,-41.801 -24.044,-73.614c-0,-20.715 3.329,-38.841 10.357,-54.378c6.659,-15.537 17.386,-27.374 31.443,-35.142c14.057,-7.769 29.224,-11.468 45.5,-11.468c21.085,0 38.102,5.179 51.419,15.537c12.947,10.727 21.455,25.524 25.154,45.13l-31.443,4.809c-2.959,-12.947 -8.508,-22.565 -15.906,-29.224c-7.769,-6.288 -17.017,-9.618 -27.744,-9.618c-16.277,0 -29.594,5.919 -39.951,17.756c-10.358,11.468 -15.537,30.334 -15.537,55.488c0,25.894 5.179,44.76 14.797,56.228c9.988,11.837 22.935,17.386 38.841,17.386c12.577,-0 23.305,-3.699 31.813,-11.468c8.508,-7.768 14.057,-19.975 16.277,-36.252Z" style="fill:#ff9016;fill-rule:nonzero;"/></g><g><rect x="2080.28" y="186.323" width="32.553" height="264.862" style="fill:#ff9016;"/></g><g><path d="M2168.75,223.685l0,-37.362l32.553,0l-0,37.362l-32.553,0Zm0,227.5l0,-191.988l32.553,0l-0,191.988l-32.553,-0Z" style="fill:#ff9016;fill-rule:nonzero;"/></g><g><path d="M2387.8,389.409l33.663,4.069c-5.549,19.605 -15.167,34.772 -29.594,45.87c-14.427,10.727 -32.553,16.276 -54.748,16.276c-28.113,0 -50.308,-8.878 -66.955,-25.894c-16.276,-17.386 -24.414,-41.801 -24.414,-72.874c-0,-32.183 8.138,-57.338 24.784,-75.094c16.646,-17.756 38.102,-26.634 64.736,-26.634c25.524,0 46.609,8.508 62.886,26.264c16.276,17.387 24.414,41.801 24.414,73.614c0,1.85 -0.37,4.809 -0.37,8.508l-143.158,0c1.48,21.086 7.399,37.362 18.126,48.46c10.728,11.097 24.045,16.646 39.951,16.646c11.838,-0 22.195,-2.959 30.703,-9.248c8.139,-6.289 15.167,-16.276 19.976,-29.963Zm-106.906,-52.529l107.276,0c-1.48,-16.276 -5.549,-28.114 -12.207,-36.252c-10.358,-12.577 -24.045,-18.866 -40.321,-18.866c-15.167,0 -27.744,5.179 -37.732,15.167c-10.358,9.988 -15.906,23.305 -17.016,39.951Z" style="fill:#ff9016;fill-rule:nonzero;"/></g><g><path d="M2467.76,451.185l-0,-191.988l29.223,0l0,27.374c14.057,-21.085 34.403,-31.443 61.037,-31.443c11.467,0 22.195,1.85 31.813,6.289c9.617,4.069 17.016,9.618 21.825,16.276c4.809,6.659 8.138,14.797 9.988,24.045c1.479,5.919 1.849,16.276 1.849,31.443l0,118.004l-32.553,-0l0,-116.524c0,-13.317 -1.109,-23.305 -3.699,-29.964c-2.589,-6.288 -7.028,-11.837 -13.317,-15.536c-6.658,-4.069 -14.057,-5.919 -22.565,-5.919c-14.057,0 -25.894,4.439 -35.882,13.317c-10.358,8.508 -15.166,25.155 -15.166,49.939l-0,104.687l-32.553,-0Z" style="fill:#ff9016;fill-rule:nonzero;"/></g><g><path d="M2750.06,421.961l4.809,28.854c-9.248,1.85 -17.386,2.959 -24.784,2.959c-11.837,0 -21.085,-1.849 -27.374,-5.548c-6.659,-3.7 -11.098,-8.878 -13.687,-14.797c-2.589,-6.289 -4.069,-18.866 -4.069,-38.472l-0,-110.235l-23.675,-0l0,-25.525l23.675,0l-0,-47.349l32.183,-19.606l-0,66.955l32.922,0l0,25.525l-32.922,-0l-0,112.085c-0,9.248 0.74,15.167 1.849,17.756c1.11,2.959 2.96,4.809 5.549,6.289c2.59,1.849 6.289,2.589 11.098,2.589c3.699,0 8.508,-0.37 14.426,-1.48Z" style="fill:#ff9016;fill-rule:nonzero;"/></g></g><g><path d="M429.683,549.381c-0,-0 26.216,23.797 39.138,16.021" style="fill:#9b95ff;fill-rule:nonzero;stroke:#b2a3ff;stroke-width:6.63px;"/></g><g><path d="M431.542,551.897c-0,-0 26.594,23.311 21.842,38.383" style="fill:#9b95ff;fill-rule:nonzero;stroke:#b2a3ff;stroke-width:6.68px;"/></g><g><g><clipPath id="_clip2"><path d="M85.884,-34.758l-0.711,624.273l575.21,0.719l0.711,-624.272l-575.21,-0.72Z"/></clipPath><g clip-path="url(#_clip2)"><g><path d="M-130.095,208.28c0,-0 12.496,110.438 187.184,160.663c174.695,50.22 249.507,-3.856 325.138,78.534c54.586,59.465 61.16,88.484 60.597,100.031c-0.179,3.625 -2.324,6.765 -5.436,8.195c-14.541,6.704 -66.208,27.81 -100.921,7.353c-40.749,-24.009 -53.302,-84.446 -120.282,-90.783c-66.344,-6.275 -174.677,49.755 -306.831,-41.498c-2.378,-1.638 -3.899,-4.381 -4.126,-7.404c-7.287,-95.138 -35.323,-215.091 -35.323,-215.091" style="fill:#ffca00;fill-rule:nonzero;"/></g><g><path d="M680.464,198.875c-3.223,-4.936 -9.705,-5.42 -13.782,-1.284c-11.624,11.794 -38.923,28.715 -88.846,4.755c-70.247,-33.71 -115.064,-93.739 -178.565,-101.083c-63.507,-7.35 -94.017,16.234 -102.527,52.573c-8.51,36.339 -0.96,97.226 23.615,86.353c24.569,-10.873 -4.972,-98.144 62.764,-91.7c67.743,6.452 123.469,150.089 256.408,161.159c110.395,9.199 60.896,-80.188 40.933,-110.773" style="fill:#ffca00;fill-rule:nonzero;"/></g></g></g></g><g><path d="M388.338,526.908c0,-0 -11.663,-29.268 -31.607,-41.253c-19.935,-11.987 -46.268,-7.512 -46.268,-7.512c0,0 5.729,21.473 31.061,37.413c23.621,14.861 46.814,11.352 46.814,11.352" style="fill:#fff;fill-rule:nonzero;"/></g><g><path d="M338.57,493.869c-3.463,6.649 -1.252,15.064 4.941,18.786c6.198,3.726 14.025,1.343 17.488,-5.305c3.468,-6.646 1.258,-15.062 -4.938,-18.778c-6.193,-3.722 -14.028,-1.352 -17.491,5.297" style="fill:#1d1d1b;fill-rule:nonzero;"/></g><g><path d="M599.281,248.332c-23.95,0.059 -43.409,-17.592 -43.466,-39.419c-0.015,-5.783 1.363,-11.255 3.796,-16.214c5.768,3.263 11.636,6.432 17.759,9.345c28.79,13.694 49.995,13.823 65.035,9.229c-1.407,20.631 -20.129,37.002 -43.124,37.059" style="fill:#f99300;fill-rule:nonzero;"/></g><g><path d="M479.088,150.033c-0.01,-3.91 0.776,-7.61 2.046,-11.08c15.919,11.228 32.044,23.631 49.363,35.488c-5.421,4.488 -12.25,7.305 -19.809,7.32c-17.409,0.042 -31.553,-14.16 -31.6,-31.728" style="fill:#f99300;fill-rule:nonzero;"/></g><g><path d="M423.39,126.55c-13.662,0.034 -24.774,-10.623 -24.808,-23.792c-0.002,-0.379 0.097,-0.738 0.113,-1.118c16.021,1.812 30.865,6.995 45.245,14.257c-4.429,6.397 -11.968,10.631 -20.55,10.653" style="fill:#f99300;fill-rule:nonzero;"/></g><g><path d="M161.473,439.782c-36.8,0.092 -66.699,-25.26 -66.776,-56.632c-0.005,-1.241 0.12,-2.451 0.209,-3.676c52.569,11.625 95.233,14.058 131.476,15.653c-6.528,25.466 -33.062,44.581 -64.909,44.655" style="fill:#f99300;fill-rule:nonzero;"/></g></svg>