<?xml version="1.0" encoding="UTF-8" standalone="no"?><!DOCTYPE svg PUBLIC "-//W3C//DTD SVG 1.1//EN" "http://www.w3.org/Graphics/SVG/1.1/DTD/svg11.dtd"><svg width="100%" height="100%" viewBox="0 0 578 577" version="1.1" xmlns="http://www.w3.org/2000/svg" xmlns:xlink="http://www.w3.org/1999/xlink" xml:space="preserve" xmlns:serif="http://www.serif.com/" style="fill-rule:evenodd;clip-rule:evenodd;stroke-miterlimit:10;"><rect id="Artboard1" x="0" y="0" width="577.384" height="576.203" style="fill:none;"/><g id="XMLID_00000109709564331519897510000016852072943903339920_"></g><g id="XMLID_00000040540247660212639630000002019787730748667061_"><path d="M1.521,460.911c-0,50.375 -0,78.417 18.291,96.709c18.292,18.291 46.334,18.291 96.709,18.291l345,0c50.375,0 78.416,0 96.708,-18.291c18.292,-18.292 18.292,-46.292 18.292,-96.709l-0,-345c-0,-50.375 -0,-78.416 -18.292,-96.708c-18.292,-18.292 -46.333,-18.292 -96.708,-18.292l-345,0c-50.375,0 -78.417,0 -96.709,18.292c-18.291,18.292 -18.291,46.333 -18.291,96.708l-0,345Z" style="fill:#f00;fill-rule:nonzero;"/><path id="XMLID_00000078733318996571568460000015652521994307878047_" d="M270.146,72.786l-0,431.25c-0,13.459 -11.042,24.459 -24.459,24.459l-47.583,-0c-13.417,-0 -24.458,-11 -24.458,-24.459l-0,-431.25c-0,-13.458 11,-24.458 24.458,-24.458l47.583,-0c13.459,-0 24.459,11.042 24.459,24.458" style="fill:#fff;"/><path id="XMLID_00000171718291121535401440000007257378582695081139_" d="M403.104,192.578l0,191.167c0,13.458 -11.042,24.458 -24.458,24.458l-47.584,-0c-13.416,-0 -24.458,-11 -24.458,-24.458l0,-191.167c0,-13.458 11,-24.458 24.458,-24.458l47.584,-0c13.458,-0 24.458,11.041 24.458,24.458" style="fill:#fff;"/><path id="XMLID_00000103253092246686722500000002695500779544695482_" d="M535.437,264.87l0,47c0,13.458 -11.041,24.458 -24.458,24.458l-46.958,-0c-13.417,-0 -24.459,-11 -24.459,-24.458l0,-47c0,-13.459 11,-24.459 24.459,-24.459l46.958,0c13.458,0 24.458,11 24.458,24.459" style="fill:#fff;"/><path id="XMLID_00000174564214834234760000000007109640832849294465_" d="M138.479,264.87l0,47c0,13.458 -11.042,24.458 -24.458,24.458l-46.959,-0c-13.416,-0 -24.458,-11 -24.458,-24.458l0,-47c0,-13.459 11,-24.459 24.458,-24.459l46.959,0c13.458,0 24.458,11 24.458,24.459" style="fill:#fff;"/></g><g><path d="M345.483,489.818c-0,-0 26.216,23.797 39.138,16.021" style="fill:#9b95ff;fill-rule:nonzero;stroke:#b2a3ff;stroke-width:6.63px;"/></g><g><path d="M347.341,492.333c0,0 26.595,23.312 21.843,38.384" style="fill:#9b95ff;fill-rule:nonzero;stroke:#b2a3ff;stroke-width:6.68px;"/></g><g><g><clipPath id="_clip1"><path d="M1.684,-94.321l-0.711,624.272l575.21,0.72l0.711,-624.272l-575.21,-0.72Z"/></clipPath><g clip-path="url(#_clip1)"><g><path d="M-214.295,148.717c-0,-0 12.496,110.437 187.184,160.663c174.694,50.219 249.507,-3.856 325.138,78.534c54.585,59.465 61.16,88.484 60.597,100.03c-0.179,3.626 -2.324,6.766 -5.436,8.196c-14.541,6.704 -66.208,27.809 -100.921,7.353c-40.749,-24.009 -53.302,-84.447 -120.282,-90.783c-66.344,-6.275 -174.677,49.755 -306.832,-41.498c-2.377,-1.638 -3.898,-4.381 -4.126,-7.404c-7.286,-95.138 -35.322,-215.091 -35.322,-215.091" style="fill:#ffca00;fill-rule:nonzero;"/></g><g><path d="M596.264,139.312c-3.223,-4.936 -9.706,-5.42 -13.782,-1.284c-11.624,11.794 -38.923,28.715 -88.846,4.754c-70.247,-33.709 -115.064,-93.738 -178.565,-101.082c-63.507,-7.351 -94.017,16.234 -102.527,52.573c-8.51,36.339 -0.96,97.225 23.615,86.353c24.569,-10.873 -4.972,-98.145 62.764,-91.7c67.743,6.451 123.469,150.089 256.408,161.159c110.395,9.199 60.896,-80.189 40.933,-110.773" style="fill:#ffca00;fill-rule:nonzero;"/></g></g></g></g><g><path d="M304.138,467.345c-0,-0 -11.663,-29.269 -31.607,-41.253c-19.935,-11.987 -46.268,-7.512 -46.268,-7.512c0,-0 5.729,21.473 31.061,37.413c23.62,14.861 46.814,11.352 46.814,11.352" style="fill:#fff;fill-rule:nonzero;"/></g><g><path d="M254.37,434.306c-3.463,6.648 -1.252,15.064 4.94,18.786c6.199,3.725 14.026,1.343 17.489,-5.306c3.468,-6.645 1.258,-15.061 -4.938,-18.777c-6.193,-3.722 -14.028,-1.352 -17.491,5.297" style="fill:#1d1d1b;fill-rule:nonzero;"/></g><g><path d="M515.08,188.769c-23.95,0.059 -43.409,-17.592 -43.465,-39.419c-0.015,-5.784 1.362,-11.255 3.796,-16.214c5.768,3.263 11.636,6.432 17.759,9.345c28.79,13.694 49.995,13.823 65.035,9.228c-1.407,20.631 -20.129,37.003 -43.125,37.06" style="fill:#f99300;fill-rule:nonzero;"/></g><g><path d="M394.888,90.469c-0.01,-3.909 0.775,-7.609 2.046,-11.079c15.919,11.228 32.044,23.631 49.363,35.487c-5.421,4.489 -12.25,7.305 -19.809,7.321c-17.41,0.042 -31.553,-14.16 -31.6,-31.729" style="fill:#f99300;fill-rule:nonzero;"/></g><g><path d="M339.19,66.986c-13.662,0.035 -24.774,-10.622 -24.808,-23.791c-0.002,-0.38 0.097,-0.739 0.113,-1.118c16.021,1.811 30.865,6.995 45.245,14.257c-4.429,6.397 -11.969,10.631 -20.55,10.652" style="fill:#f99300;fill-rule:nonzero;"/></g><g><path d="M77.273,380.219c-36.801,0.092 -66.699,-25.26 -66.776,-56.632c-0.005,-1.241 0.12,-2.451 0.209,-3.676c52.568,11.625 95.233,14.058 131.476,15.653c-6.528,25.466 -33.062,44.58 -64.909,44.655" style="fill:#f99300;fill-rule:nonzero;"/></g><g id="XMLID_00000040540247660212639630000002019787730748667061_1" serif:id="XMLID_00000040540247660212639630000002019787730748667061_"><path d="M1.145,460.911c0,50.375 0,78.417 18.304,96.709c18.304,18.291 46.364,18.291 96.771,18.291l345.226,0c50.408,0 78.468,0 96.771,-18.291c18.304,-18.292 18.304,-46.292 18.304,-96.709l-0,-345c-0,-50.375 -0,-78.416 -18.304,-96.708c-18.303,-18.292 -46.363,-18.292 -96.771,-18.292l-345.226,0c-50.407,0 -78.467,0 -96.771,18.292c-18.304,18.292 -18.304,46.333 -18.304,96.708l0,345Z" style="fill:#f00;fill-rule:nonzero;"/><path id="XMLID_00000078733318996571568460000015652521994307878047_1" serif:id="XMLID_00000078733318996571568460000015652521994307878047_" d="M269.946,72.786l-0,431.25c-0,13.459 -11.049,24.459 -24.475,24.459l-47.614,-0c-13.425,-0 -24.474,-11 -24.474,-24.459l-0,-431.25c-0,-13.458 11.007,-24.458 24.474,-24.458l47.614,-0c13.468,-0 24.475,11.042 24.475,24.458" style="fill:#fff;"/><path id="XMLID_00000171718291121535401440000007257378582695081139_1" serif:id="XMLID_00000171718291121535401440000007257378582695081139_" d="M402.991,192.578l-0,191.167c-0,13.458 -11.049,24.458 -24.474,24.458l-47.615,-0c-13.425,-0 -24.474,-11 -24.474,-24.458l-0,-191.167c-0,-13.458 11.007,-24.458 24.474,-24.458l47.615,-0c13.467,-0 24.474,11.041 24.474,24.458" style="fill:#fff;"/><path id="XMLID_00000103253092246686722500000002695500779544695482_1" serif:id="XMLID_00000103253092246686722500000002695500779544695482_" d="M535.411,264.87l-0,47c-0,13.458 -11.049,24.458 -24.475,24.458l-46.989,-0c-13.425,-0 -24.474,-11 -24.474,-24.458l-0,-47c-0,-13.459 11.007,-24.459 24.474,-24.459l46.989,0c13.467,0 24.475,11 24.475,24.459" style="fill:#fff;"/><path id="XMLID_00000174564214834234760000000007109640832849294465_1" serif:id="XMLID_00000174564214834234760000000007109640832849294465_" d="M138.193,264.87l0,47c0,13.458 -11.049,24.458 -24.474,24.458l-46.989,-0c-13.426,-0 -24.474,-11 -24.474,-24.458l-0,-47c-0,-13.459 11.007,-24.459 24.474,-24.459l46.989,0c13.467,0 24.474,11 24.474,24.459" style="fill:#fff;"/></g><g><path d="M345.483,489.818c-0,-0 26.216,23.797 39.138,16.021" style="fill:#9b95ff;fill-rule:nonzero;stroke:#b2a3ff;stroke-width:6.63px;"/></g><g><path d="M347.341,492.333c0,0 26.595,23.312 21.843,38.384" style="fill:#9b95ff;fill-rule:nonzero;stroke:#b2a3ff;stroke-width:6.68px;"/></g><g><g><clipPath id="_clip2"><path d="M1.684,-94.321l-0.711,624.272l575.21,0.72l0.711,-624.272l-575.21,-0.72Z"/></clipPath><g clip-path="url(#_clip2)"><g><path d="M-214.295,148.717c-0,-0 12.496,110.437 187.184,160.663c174.694,50.219 249.507,-3.856 325.138,78.534c54.585,59.465 61.16,88.484 60.597,100.03c-0.179,3.626 -2.324,6.766 -5.436,8.196c-14.541,6.704 -66.208,27.809 -100.921,7.353c-40.749,-24.009 -53.302,-84.447 -120.282,-90.783c-66.344,-6.275 -174.677,49.755 -306.832,-41.498c-2.377,-1.638 -3.898,-4.381 -4.126,-7.404c-7.286,-95.138 -35.322,-215.091 -35.322,-215.091" style="fill:#ffca00;fill-rule:nonzero;"/></g><g><path d="M596.264,139.312c-3.223,-4.936 -9.706,-5.42 -13.782,-1.284c-11.624,11.794 -38.923,28.715 -88.846,4.754c-70.247,-33.709 -115.064,-93.738 -178.565,-101.082c-63.507,-7.351 -94.017,16.234 -102.527,52.573c-8.51,36.339 -0.96,97.225 23.615,86.353c24.569,-10.873 -4.972,-98.145 62.764,-91.7c67.743,6.451 123.469,150.089 256.408,161.159c110.395,9.199 60.896,-80.189 40.933,-110.773" style="fill:#ffca00;fill-rule:nonzero;"/></g></g></g></g><g><path d="M304.138,467.345c-0,-0 -11.663,-29.269 -31.607,-41.253c-19.935,-11.987 -46.268,-7.512 -46.268,-7.512c0,-0 5.729,21.473 31.061,37.413c23.62,14.861 46.814,11.352 46.814,11.352" style="fill:#fff;fill-rule:nonzero;"/></g><g><path d="M254.37,434.306c-3.463,6.648 -1.252,15.064 4.94,18.786c6.199,3.725 14.026,1.343 17.489,-5.306c3.468,-6.645 1.258,-15.061 -4.938,-18.777c-6.193,-3.722 -14.028,-1.352 -17.491,5.297" style="fill:#1d1d1b;fill-rule:nonzero;"/></g><g><path d="M515.08,188.769c-23.95,0.059 -43.409,-17.592 -43.465,-39.419c-0.015,-5.784 1.362,-11.255 3.796,-16.214c5.768,3.263 11.636,6.432 17.759,9.345c28.79,13.694 49.995,13.823 65.035,9.228c-1.407,20.631 -20.129,37.003 -43.125,37.06" style="fill:#f99300;fill-rule:nonzero;"/></g><g><path d="M394.888,90.469c-0.01,-3.909 0.775,-7.609 2.046,-11.079c15.919,11.228 32.044,23.631 49.363,35.487c-5.421,4.489 -12.25,7.305 -19.809,7.321c-17.41,0.042 -31.553,-14.16 -31.6,-31.729" style="fill:#f99300;fill-rule:nonzero;"/></g><g><path d="M339.19,66.986c-13.662,0.035 -24.774,-10.622 -24.808,-23.791c-0.002,-0.38 0.097,-0.739 0.113,-1.118c16.021,1.811 30.865,6.995 45.245,14.257c-4.429,6.397 -11.969,10.631 -20.55,10.652" style="fill:#f99300;fill-rule:nonzero;"/></g><g><path d="M77.273,380.219c-36.801,0.092 -66.699,-25.26 -66.776,-56.632c-0.005,-1.241 0.12,-2.451 0.209,-3.676c52.568,11.625 95.233,14.058 131.476,15.653c-6.528,25.466 -33.062,44.58 -64.909,44.655" style="fill:#f99300;fill-rule:nonzero;"/></g></svg>