<?xml version="1.0" encoding="UTF-8" standalone="no"?>
<!DOCTYPE svg PUBLIC "-//W3C//DTD SVG 1.1//EN" "http://www.w3.org/Graphics/SVG/1.1/DTD/svg11.dtd">
<svg width="100%" height="100%" viewBox="0 0 1286 342" version="1.1" xmlns="http://www.w3.org/2000/svg" xmlns:xlink="http://www.w3.org/1999/xlink" xml:space="preserve" xmlns:serif="http://www.serif.com/" style="fill-rule:evenodd;clip-rule:evenodd;stroke-linejoin:round;stroke-miterlimit:2;">
    <g transform="matrix(1,0,0,1,-380.525,-696.194)">
        <g id="Artboard1" transform="matrix(0.366421,0,0,0.137759,380.525,696.194)">
            <rect x="0" y="0" width="3507.87" height="2480.32" style="fill:none;"/>
            <g transform="matrix(11.3712,0,0,-30.2461,181.054,891.816)">
                <path d="M0,-15.982C1.013,-21.65 24.057,-27.789 30.213,-22.723C33.307,-20.178 31.609,-14.294 37.564,-18.38C43.52,-22.466 61.877,-37.998 81.765,-34.048C101.652,-30.098 122.781,2.097 145.343,-4.227C167.906,-10.552 183.736,-33.928 207.177,-32.958C229.865,-32.019 237.299,-5.194 282.231,-18.392C283.368,-18.726 284.149,-17.287 283.252,-16.512C271.821,-6.627 244.428,-5.055 234.654,-10.8C199.992,-31.173 185.917,-5.04 161.177,8.488C136.437,22.016 116.749,9.646 103.119,-1.251C89.489,-12.147 76.335,-26.725 65.388,-20.013C54.811,-13.529 46.43,-6.986 35.262,-5.095C34.266,-4.926 33.287,-4.638 32.478,-4.032C26.725,0.278 23.136,2.635 18.396,0.913C10.95,-1.792 -0.92,-10.834 0,-15.982" style="fill:url(#_Linear1);fill-rule:nonzero;"/>
            </g>
            <g transform="matrix(-4.38233,-27.9098,10.4929,-11.6565,415.895,1194.49)">
                <path d="M6.637,-10.044C6.637,-10.044 3.806,-6.23 3.87,-2.57C3.934,1.091 6.637,4.399 6.637,4.399C6.637,4.399 8.942,1.993 8.953,-2.711C8.963,-7.098 6.637,-10.044 6.637,-10.044" style="fill:white;fill-rule:nonzero;"/>
            </g>
            <g transform="matrix(4.5665,27.7001,-10.414,12.1463,376.579,1091.06)">
                <path d="M-1.886,-1.232C-3.024,-1.232 -3.945,-0.311 -3.945,0.827C-3.945,1.965 -3.024,2.886 -1.886,2.886C-0.749,2.886 0.173,1.965 0.173,0.827C0.173,-0.311 -0.748,-1.232 -1.886,-1.232" style="fill:rgb(29,29,27);fill-rule:nonzero;"/>
            </g>
            <g transform="matrix(2.58792,-29.4524,11.0728,6.88354,326.161,1690.75)">
                <path d="M7.171,-5.468C7.171,-5.468 4.339,-1.654 4.403,2.006C4.468,5.666 7.171,8.975 7.171,8.975C7.171,8.975 9.476,6.569 9.486,1.865C9.496,-2.522 7.171,-5.468 7.171,-5.468" style="fill:white;fill-rule:nonzero;"/>
            </g>
            <g transform="matrix(-2.39392,29.5683,-11.1164,-6.36753,354.764,1557.2)">
                <path d="M-2.014,-2.493C-3.151,-2.493 -4.073,-1.571 -4.073,-0.433C-4.073,0.704 -3.151,1.626 -2.014,1.625C-0.876,1.626 0.046,0.703 0.046,-0.434C0.046,-1.571 -0.876,-2.494 -2.014,-2.493" style="fill:rgb(29,29,27);fill-rule:nonzero;"/>
            </g>
            <g transform="matrix(-0.417334,30.2257,-11.3636,-1.11006,625.807,1356.05)">
                <path d="M-2.914,-3.022C-4.524,-3.022 -5.829,-1.718 -5.828,-0.108C-5.828,1.503 -4.524,2.808 -2.914,2.808C-1.303,2.808 0.002,1.503 0.001,-0.107C0.001,-1.718 -1.303,-3.023 -2.914,-3.022" style="fill:rgb(249,147,0);fill-rule:nonzero;"/>
            </g>
            <g transform="matrix(-0.417334,30.2257,-11.3636,-1.11006,1178.11,1625.49)">
                <path d="M-2.914,-3.022C-4.524,-3.022 -5.829,-1.718 -5.828,-0.108C-5.828,1.503 -4.524,2.808 -2.914,2.808C-1.303,2.808 0.002,1.503 0.001,-0.107C0.001,-1.718 -1.303,-3.023 -2.914,-3.022" style="fill:rgb(249,147,0);fill-rule:nonzero;"/>
            </g>
            <g transform="matrix(-0.417334,30.2257,-11.3636,-1.11006,2548.18,1738.9)">
                <path d="M-2.914,-3.022C-4.524,-3.022 -5.829,-1.718 -5.828,-0.108C-5.828,1.503 -4.524,2.808 -2.914,2.808C-1.303,2.808 0.002,1.503 0.001,-0.107C0.001,-1.718 -1.303,-3.023 -2.914,-3.022" style="fill:rgb(249,147,0);fill-rule:nonzero;"/>
            </g>
            <g transform="matrix(-0.417334,30.2257,-11.3636,-1.11006,1996.16,960.596)">
                <path d="M-2.914,-3.022C-4.524,-3.022 -5.829,-1.718 -5.828,-0.108C-5.828,1.503 -4.524,2.808 -2.914,2.808C-1.303,2.808 0.002,1.503 0.001,-0.107C0.001,-1.718 -1.303,-3.023 -2.914,-3.022" style="fill:rgb(249,147,0);fill-rule:nonzero;"/>
            </g>
            <g transform="matrix(-0.417036,30.2258,-11.3636,-1.10927,739.476,1585.67)">
                <path d="M-4.387,-4.551C-6.812,-4.551 -8.777,-2.586 -8.777,-0.161C-8.777,2.263 -6.812,4.229 -4.387,4.229C-1.963,4.229 0.003,2.264 0.003,-0.161C0.003,-2.586 -1.962,-4.551 -4.387,-4.551" style="fill:rgb(249,147,0);fill-rule:nonzero;"/>
            </g>
            <g transform="matrix(-0.417036,30.2258,-11.3636,-1.10927,2113.07,1249.01)">
                <path d="M-4.387,-4.551C-6.812,-4.551 -8.777,-2.586 -8.777,-0.161C-8.777,2.263 -6.812,4.229 -4.387,4.229C-1.963,4.229 0.003,2.264 0.003,-0.161C0.003,-2.586 -1.962,-4.551 -4.387,-4.551" style="fill:rgb(249,147,0);fill-rule:nonzero;"/>
            </g>
            <g transform="matrix(-0.417036,30.2258,-11.3636,-1.10927,1042.89,1861.56)">
                <path d="M-4.387,-4.551C-6.812,-4.551 -8.777,-2.586 -8.777,-0.161C-8.777,2.263 -6.812,4.229 -4.387,4.229C-1.963,4.229 0.003,2.264 0.003,-0.161C0.003,-2.586 -1.962,-4.551 -4.387,-4.551" style="fill:rgb(249,147,0);fill-rule:nonzero;"/>
            </g>
            <g transform="matrix(-0.417036,30.2258,-11.3636,-1.10927,2402.39,1735.91)">
                <path d="M-4.387,-4.551C-6.812,-4.551 -8.777,-2.586 -8.777,-0.161C-8.777,2.263 -6.812,4.229 -4.387,4.229C-1.963,4.229 0.003,2.264 0.003,-0.161C0.003,-2.586 -1.962,-4.551 -4.387,-4.551" style="fill:rgb(249,147,0);fill-rule:nonzero;"/>
            </g>
            <g transform="matrix(-0.417393,30.2257,-11.3636,-1.11021,867.859,1816.7)">
                <path d="M-5.199,-5.395C-8.073,-5.395 -10.402,-3.065 -10.402,-0.191C-10.403,2.683 -8.073,5.012 -5.199,5.012C-2.325,5.012 0.004,2.683 0.005,-0.191C0.004,-3.065 -2.325,-5.394 -5.199,-5.395" style="fill:rgb(249,147,0);fill-rule:nonzero;"/>
            </g>
            <g transform="matrix(-0.417393,30.2257,-11.3636,-1.11021,2250.79,1557.9)">
                <path d="M-5.199,-5.395C-8.073,-5.395 -10.402,-3.065 -10.402,-0.191C-10.403,2.683 -8.073,5.012 -5.199,5.012C-2.325,5.012 0.004,2.683 0.005,-0.191C0.004,-3.065 -2.325,-5.394 -5.199,-5.395" style="fill:rgb(249,147,0);fill-rule:nonzero;"/>
            </g>
            <g transform="matrix(11.3712,0,0,-30.2461,1744.23,2141.86)">
                <path d="M0,6.102C-0.364,6.102 -0.661,5.805 -0.661,5.441L-0.661,0.661C-0.661,0.298 -0.364,0 0,0C0.364,0 0.661,0.298 0.661,0.661L0.661,5.441C0.661,5.805 0.364,6.102 0,6.102" style="fill:rgb(249,150,2);fill-rule:nonzero;"/>
            </g>
            <g transform="matrix(11.3712,0,0,-30.2461,1744.23,1854.77)">
                <path d="M0,6.102C-0.364,6.102 -0.661,5.805 -0.661,5.441L-0.661,0.661C-0.661,0.298 -0.364,0 0,0C0.364,0 0.661,0.298 0.661,0.661L0.661,5.441C0.661,5.805 0.364,6.102 0,6.102" style="fill:rgb(249,150,2);fill-rule:nonzero;"/>
            </g>
            <g transform="matrix(11.3712,0,0,-30.2461,1762.92,1911.16)">
                <path d="M0,0C0,-0.364 0.297,-0.661 0.661,-0.661L5.441,-0.661C5.804,-0.661 6.102,-0.364 6.102,0C6.102,0.364 5.804,0.661 5.441,0.661L0.661,0.661C0.297,0.661 0,0.364 0,0" style="fill:rgb(249,150,2);fill-rule:nonzero;"/>
            </g>
            <g transform="matrix(11.3712,0,0,-30.2461,1654.99,1911.16)">
                <path d="M0,0C0,-0.364 0.297,-0.661 0.661,-0.661L5.441,-0.661C5.804,-0.661 6.102,-0.364 6.102,0C6.102,0.364 5.804,0.661 5.441,0.661L0.661,0.661C0.297,0.661 0,0.364 0,0" style="fill:rgb(249,150,2);fill-rule:nonzero;"/>
            </g>
            <g transform="matrix(11.3712,0,0,-30.2461,903.735,1088.87)">
                <path d="M0,4.218C-0.251,4.218 -0.457,4.012 -0.457,3.761L-0.457,0.457C-0.457,0.206 -0.251,0 0,0C0.251,0 0.457,0.206 0.457,0.457L0.457,3.761C0.457,4.012 0.251,4.218 0,4.218" style="fill:rgb(249,150,2);fill-rule:nonzero;"/>
            </g>
            <g transform="matrix(11.3712,0,0,-30.2461,903.735,890.406)">
                <path d="M0,4.218C-0.251,4.218 -0.457,4.012 -0.457,3.761L-0.457,0.457C-0.457,0.205 -0.251,0 0,0C0.251,0 0.457,0.205 0.457,0.457L0.457,3.761C0.457,4.012 0.251,4.218 0,4.218" style="fill:rgb(249,150,2);fill-rule:nonzero;"/>
            </g>
            <g transform="matrix(11.3712,0,0,-30.2461,916.658,929.396)">
                <path d="M0,0C0,-0.251 0.206,-0.457 0.457,-0.457L3.761,-0.457C4.012,-0.457 4.218,-0.251 4.218,0C4.218,0.251 4.012,0.457 3.761,0.457L0.457,0.457C0.206,0.457 0,0.251 0,0" style="fill:rgb(249,150,2);fill-rule:nonzero;"/>
            </g>
            <g transform="matrix(11.3712,0,0,-30.2461,842.046,929.396)">
                <path d="M0,0C0,-0.251 0.206,-0.457 0.457,-0.457L3.761,-0.457C4.012,-0.457 4.218,-0.251 4.218,0C4.218,0.251 4.012,0.457 3.761,0.457L0.457,0.457C0.206,0.457 0,0.251 0,0" style="fill:rgb(249,150,2);fill-rule:nonzero;"/>
            </g>
            <g transform="matrix(11.3712,0,0,-30.2461,2667.61,1088.87)">
                <path d="M0,4.218C-0.251,4.218 -0.457,4.012 -0.457,3.761L-0.457,0.457C-0.457,0.206 -0.251,0 0,0C0.251,0 0.457,0.206 0.457,0.457L0.457,3.761C0.457,4.012 0.251,4.218 0,4.218" style="fill:rgb(249,150,2);fill-rule:nonzero;"/>
            </g>
            <g transform="matrix(11.3712,0,0,-30.2461,2667.61,890.406)">
                <path d="M0,4.218C-0.251,4.218 -0.457,4.012 -0.457,3.761L-0.457,0.457C-0.457,0.205 -0.251,0 0,0C0.251,0 0.457,0.205 0.457,0.457L0.457,3.761C0.457,4.012 0.251,4.218 0,4.218" style="fill:rgb(249,150,2);fill-rule:nonzero;"/>
            </g>
            <g transform="matrix(11.3712,0,0,-30.2461,2680.53,929.396)">
                <path d="M0,0C0,-0.251 0.206,-0.457 0.457,-0.457L3.761,-0.457C4.013,-0.457 4.218,-0.251 4.218,0C4.218,0.251 4.013,0.457 3.761,0.457L0.457,0.457C0.206,0.457 0,0.251 0,0" style="fill:rgb(249,150,2);fill-rule:nonzero;"/>
            </g>
            <g transform="matrix(11.3712,0,0,-30.2461,2605.92,929.396)">
                <path d="M0,0C0,-0.251 0.206,-0.457 0.457,-0.457L3.761,-0.457C4.012,-0.457 4.218,-0.251 4.218,0C4.218,0.251 4.012,0.457 3.761,0.457L0.457,0.457C0.206,0.457 0,0.251 0,0" style="fill:rgb(249,150,2);fill-rule:nonzero;"/>
            </g>
        </g>
    </g>
    <defs>
        <linearGradient id="_Linear1" x1="0" y1="0" x2="1" y2="0" gradientUnits="userSpaceOnUse" gradientTransform="matrix(283.692,0,0,49.104,-0.0504639,-10.1335)"><stop offset="0" style="stop-color:rgb(255,186,44);stop-opacity:1"/><stop offset="0.51" style="stop-color:rgb(255,226,68);stop-opacity:1"/><stop offset="1" style="stop-color:rgb(255,240,76);stop-opacity:1"/></linearGradient>
    </defs>
</svg>
