<svg width="48" height="48" viewBox="0 0 48 48" fill="none" xmlns="http://www.w3.org/2000/svg">
<g clip-path="url(#clip0_80_5)">
<path d="M36.9416 31.9371L44.2133 25.524C44.3546 25.399 44.467 25.2446 44.5426 25.0717C44.6183 24.8988 44.6554 24.7115 44.6514 24.5229L44.4722 14.8206C44.468 14.5715 44.3924 14.329 44.2543 14.1217C44.1162 13.9144 43.9215 13.7512 43.6933 13.6514L34.4454 9.57756C34.2166 9.47772 33.9642 9.4448 33.7175 9.4826C33.4707 9.52041 33.2398 9.6274 33.0514 9.79115L25.8054 16.1847C25.5896 16.377 25.444 16.6358 25.3917 16.9201L5.13708 28.6141C4.88811 28.7579 4.70643 28.9946 4.63202 29.2723C4.55761 29.55 4.59656 29.8459 4.74031 30.0949C4.88405 30.3439 5.12082 30.5255 5.39852 30.6C5.67622 30.6744 5.97211 30.6354 6.22108 30.4917L11.3306 27.5417C11.4533 27.4638 11.5907 27.4121 11.7343 27.3896C11.8778 27.3671 12.0244 27.3744 12.1651 27.4109C12.3059 27.4469 12.4381 27.5106 12.554 27.5984C12.6699 27.6862 12.767 27.7962 12.8397 27.9221C12.9123 28.048 12.9591 28.1872 12.9772 28.3314C12.9953 28.4756 12.9844 28.622 12.9451 28.7619C12.9043 28.901 12.8365 29.0307 12.7454 29.1435C12.6544 29.2563 12.542 29.35 12.4146 29.4192L2.23883 35.2942C2.04586 35.3956 1.88885 35.5541 1.78921 35.748C1.68957 35.9419 1.65214 36.1618 1.68202 36.3778L2.10402 37.1087C2.2761 37.2426 2.48527 37.3201 2.70301 37.3308C2.92076 37.3414 3.1365 37.2847 3.32083 37.1683L20.2776 27.3783C20.5276 27.2358 20.8236 27.1975 21.1016 27.2717C21.3796 27.3459 21.6172 27.5267 21.7628 27.7748C21.834 27.8981 21.8801 28.0342 21.8985 28.1753C21.9169 28.3164 21.9072 28.4598 21.87 28.5972C21.8327 28.7346 21.7687 28.8633 21.6816 28.9758C21.5945 29.0884 21.486 29.1826 21.3623 29.2531L11.2298 35.1031C10.9912 35.2522 10.8196 35.488 10.7511 35.7609C10.6826 36.0339 10.7226 36.3227 10.8625 36.5669C11.0022 36.8122 11.2325 36.9931 11.504 37.0708C11.7754 37.1484 12.0665 37.1167 12.3148 36.9824L19.0144 33.1144C19.2629 32.9709 19.5583 32.932 19.8355 33.0063C20.1126 33.0805 20.349 33.2619 20.4925 33.5104C20.6359 33.7589 20.6748 34.0543 20.6006 34.3315C20.5263 34.6086 20.3449 34.845 20.0964 34.9884L9.9466 40.8485C9.709 40.9987 9.53851 41.2348 9.4706 41.5076C9.40268 41.7804 9.44259 42.0688 9.58201 42.313C9.72257 42.5566 9.95266 42.7358 10.2233 42.8125C10.494 42.8891 10.7839 42.8571 11.0313 42.7233L32.029 30.6003L35.5523 32.1549C35.7804 32.256 36.0327 32.2895 36.2792 32.2512C36.5257 32.2128 36.755 32.1027 36.9416 31.9371ZM35.972 30.0697C35.6929 30.0749 35.4232 29.9693 35.222 29.7759C35.0207 29.5826 34.9044 29.3173 34.8984 29.0383L34.7806 23.0302C34.7746 22.6948 34.6729 22.368 34.4873 22.0885C34.3018 21.809 34.0402 21.5883 33.7334 21.4525L28.4444 19.1275C28.188 19.014 27.9873 18.8033 27.8863 18.5417C27.7853 18.2802 27.7924 17.9892 27.9059 17.7329C28.0195 17.4766 28.2302 17.2758 28.4917 17.1748C28.7533 17.0739 29.0442 17.0809 29.3005 17.1944L34.5866 19.5142C34.8928 19.6494 35.2312 19.6944 35.5621 19.6441C35.893 19.5938 36.2027 19.4501 36.4548 19.23L40.8866 15.318C40.9898 15.2255 41.1105 15.1543 41.2415 15.1088C41.3726 15.0633 41.5113 15.0443 41.6498 15.0529C41.7882 15.0615 41.9235 15.0976 42.0479 15.159C42.1723 15.2204 42.2832 15.306 42.3742 15.4106C42.4662 15.5139 42.5368 15.6343 42.5822 15.765C42.6275 15.8956 42.6465 16.0339 42.6383 16.172C42.63 16.31 42.5945 16.445 42.5339 16.5693C42.4733 16.6936 42.3887 16.8047 42.285 16.8962L37.4814 21.1361C37.292 21.3069 37.1411 21.516 37.0387 21.7495C36.9362 21.9831 36.8845 22.2357 36.8871 22.4907L37.0024 28.9944C37.0055 29.1327 36.9813 29.2703 36.931 29.3992C36.8807 29.5281 36.8054 29.6457 36.7094 29.7454C36.6135 29.845 36.4987 29.9247 36.3718 29.9797C36.2449 30.0348 36.1083 30.0642 35.97 30.0662M9.48021 38.6166C9.72886 38.4734 9.91042 38.2372 9.98495 37.9601C10.0595 37.683 10.0209 37.3876 9.87762 37.139C9.73436 36.8903 9.4982 36.7088 9.22108 36.6342C8.94397 36.5597 8.64859 36.5983 8.39994 36.7416C8.15142 36.885 7.97008 37.1214 7.89581 37.3986C7.82154 37.6757 7.86042 37.9711 8.0039 38.2196C8.14738 38.4681 8.38371 38.6495 8.6609 38.7237C8.93809 38.798 9.23169 38.7601 9.48021 38.6166Z" fill="#035AA8"/>
</g>
<defs>
<clipPath id="clip0_80_5">
<rect width="48" height="48" fill="white"/>
</clipPath>
</defs>
</svg>
