<svg width="110" height="110" viewBox="0 0 110 110" fill="none" xmlns="http://www.w3.org/2000/svg">
<rect width="110" height="110" rx="55" fill="white"/>
<path d="M105 55C105 82.6142 82.6142 105 55 105C27.3858 105 5 82.6142 5 55C5 27.3858 27.3858 5 55 5C82.6142 5 105 27.3858 105 55Z" fill="#00447C"/>
<path d="M33.4 45.88C31.9067 45.88 30.7067 45.4533 29.8 44.6C28.9467 43.6933 28.52 42.4933 28.52 41C28.52 39.6133 28.9467 38.4933 29.8 37.64C30.7067 36.7867 31.9067 36.36 33.4 36.36C34.8933 36.36 36.04 36.7867 36.84 37.64C37.6933 38.44 38.12 39.56 38.12 41C38.12 42.5467 37.6933 43.7467 36.84 44.6C36.04 45.4533 34.8933 45.88 33.4 45.88Z" fill="white"/>
<path d="M54.2519 36.52C56.1185 36.52 57.5585 37.24 58.5718 38.68C59.6385 40.12 60.1718 42.1733 60.1718 44.84C60.1718 47.24 59.6385 49.4533 58.5718 51.48C57.5052 53.56 55.9052 55.64 53.7719 57.72C53.7185 57.7733 53.6385 57.8 53.5319 57.8C53.3719 57.8 53.2385 57.72 53.1319 57.56C53.0252 57.4 53.0252 57.2667 53.1319 57.16C55.7452 54.4933 57.0518 51.3467 57.0518 47.72C57.0518 46.2267 56.7852 45.1333 56.2519 44.44C55.7719 45.24 54.7852 45.64 53.2918 45.64C52.0118 45.64 50.9719 45.24 50.1719 44.44C49.4252 43.5867 49.0519 42.4933 49.0519 41.16C49.0519 39.72 49.5052 38.6 50.4119 37.8C51.3719 36.9467 52.6519 36.52 54.2519 36.52Z" fill="white"/>
<path d="M76.9156 45.88C75.4223 45.88 74.2223 45.4533 73.3156 44.6C72.4623 43.6933 72.0356 42.4933 72.0356 41C72.0356 39.6133 72.4623 38.4933 73.3156 37.64C74.2223 36.7867 75.4223 36.36 76.9156 36.36C78.4089 36.36 79.5556 36.7867 80.3556 37.64C81.2089 38.44 81.6356 39.56 81.6356 41C81.6356 42.5467 81.2089 43.7467 80.3556 44.6C79.5556 45.4533 78.4089 45.88 76.9156 45.88Z" fill="white"/>
</svg>